<?xml version="1.0" encoding="UTF-8"?>
<svg version="1.1" viewBox="0 0 1024 1024" xml:space="preserve" xmlns="http://www.w3.org/2000/svg"><g transform="scale(1.5625)"><path d="m434.41 473.42c-0.11301-0.0228-0.29941-0.0323-0.44141 0.0508-2.8434 1.6628-11.737 7.9245-16.762 11.797-6.53 5.0324-15.813 13.261-27.713 24.559-3.2534 3.0888-7.9674 7.5292-10.475 9.8691-2.2589 2.1082-4.1368 3.931-4.5332 4.4141-0.0429 0.0523-0.14648 0.1531-0.14648 0.33008 0 0.30292 0.31363 0.4231 0.51172 0.51953 1.8062 0.8793 10.988 4.4471 18.938 7.3457 3.0798 1.1229 6.607 2.4142 7.8379 2.8691 1.2342 0.45611 2.4141 0.85248 2.7148 0.86719 0.18764 9e-3 0.32388-0.11615 0.37695-0.16992 0.39924-0.40441 1.4796-2.3556 2.5957-4.6465 5.203-10.679 11.008-19.41 22.207-33.387 5.9483-7.4237 7.6588-9.3976 11.771-13.584l3.7812-3.8476-1.8887-1.3418c-5.2789-3.7396-7.9471-5.4773-8.7754-5.6445zm-213.13 8.0742 0.25586 0.82617c0.54921 1.7739 1.108 3.6387 1.6973 5.1758 2.5533 6.6608 4.5846 9.9803 11.262 18.42 2.4021 3.0362 5.4481 6.8886 6.7695 8.5606 3.1715 4.0127 5.7256 6.6582 10.881 11.283 6.6462 5.9625 10.943 8.9496 15.354 10.635 2.0216 0.77234 2.4427 1.4686 1.9844 2.4746-0.1776 0.3898-0.6046 0.70841-1.4844 0.94531-2.1737 0.58531-8.9656 3.3639-12.258 5.0059-5.4489 2.7176-9.5658 5.3551-11.762 7.5508-2.2682 2.2678-3.9793 5.0666-4.9297 7.582l-0.1875 0.4961h0.0176c-0.22819 0.6489-0.42482 1.2864-0.51368 1.8808l0.74414 0.125c0.11306-0.60865 0.32263-1.2794 0.56836-1.9668 4.4941 0.17402 16.983 1.9913 28.25 4.1758 17.859 3.4626 38.069 7.6787 54.418 11.35 10.193 2.2886 21.628 4.827 25.414 5.6426 13.07 2.8152 40.248 9.4724 44.924 10.998l3.1367 1.0254-0.11328-0.625c-0.67119-3.698-1.0771-7.3669-1.082-11.002-8e-3 -5.5652 0.94026-14.545 1.9766-20.299l0.0488-0.26562-0.23828-0.13086c-0.82685-0.45578-2.3502-1.0204-5.4004-2.1465-5.0097-1.8495-19.736-7.5857-26.229-10.217-2.8188-1.1423-5.9558-2.3366-6.9902-2.6582-0.67689-0.21046-0.96882-0.25748-1.2715-0.30859l-0.22656-0.0371-0.13867 0.18359c-2.2168 2.9669-2.3594 3.0654-3.375 3.1192-2.2038 0.11655-4.2256 4e-3 -6.8691-0.25782l-0.25391-0.0234-0.11914 0.22656c-0.36758 0.70714-0.63724 1.2636-1.416 2.6035-1.1627 2.0004-2.5373 4.4712-3.0547 5.4961-0.61627 1.2208-1.1054 1.7506-1.4297 1.832-2.4447 0.61358-24.712-3.7275-35.916-7.0625-16.313-4.8558-29.197-13.201-44.061-28.561-10.616-10.969-16.821-19.221-22.545-29.963-1.4539-2.7287-2.8077-5.2288-3.043-5.6172-0.27675-0.45673-1.8307-1.3551-3.4004-2.0508-1.5583-0.69064-4.7025-2.1637-6.9883-3.2734-0.87788-0.42619-0.94626-0.45012-1.625-0.77539zm179.1 114.93-0.73047 0.19141c0.20963 0.79929 0.42309 1.6284 0.67579 2.4394l0.72265-0.22656c-0.24717-0.79333-0.45803-1.6038-0.66797-2.4043z" fill="#e1ddd6"/><path d="m220.32 475.46c-0.33018 0-0.41257 0.29861-0.42773 0.42187-0.0803 0.6529 0.71516 3.4398 1.6426 6.4356l0.0488 0.1582 0.14844 0.0723c0.68375 0.32766 0.74724 0.34724 1.6211 0.77148 2.2901 1.1118 5.4476 2.5902 7.0156 3.2852 1.555 0.68917 2.9266 1.5289 3.0606 1.75 0.19126 0.31565 1.5663 2.8547 3.0195 5.582 5.7702 10.829 12.01 19.12 22.67 30.135 14.935 15.432 27.923 23.854 44.389 28.756 11.215 3.3384 33.645 7.7441 36.314 7.0742 0.68234-0.17125 1.2825-0.95993 1.9219-2.2266 0.50615-1.0027 1.8715-3.4617 3.0312-5.457 0.79003-1.3593 1.0752-1.9416 1.4356-2.6348l0.25781-0.49414-0.55664-0.0566c-1.0089-0.10002-1.7901-0.14817-3.1445-0.31836-16.702-2.0986-29.714-5.8758-42.809-12.42-7.0599-3.5283-15.101-8.7292-24.291-15.717-8.7644-6.6641-16.913-15.772-24.883-27.826l-2.5957-3.9238-10.861-5.1934c-5.9208-2.83-12.094-5.8179-13.711-6.6367-1.6248-0.82282-3.0623-1.5371-3.2969-1.5371zm138.93 66.961c-0.30545 0.11154-1.5856 1.7432-2.9648 3.5918-0.0553 0.0741-0.0538 0.0603-0.12695 0.1582l-0.37109 0.4961 0.61132 0.10351c0.3096 0.0523 0.53682 0.0871 1.1738 0.28516 0.98728 0.30698 4.1146 1.4948 6.9277 2.6348 6.4998 2.634 21.23 8.3744 26.252 10.229 3.0502 1.1261 4.5298 1.6718 5.2988 2.0957l0.46094 0.25586 0.0918-0.51953c0.14949-0.82991 0.26337-2.1167 0.4043-2.7226 0.43055-1.8513 0.47475-2.1918-0.49805-2.5586-0.3862-0.14561-3.5054-1.3076-6.9375-2.584-13.446-5.0005-18.298-6.8596-23.918-9.1641-2.8984-1.1885-5.4047-2.1443-6.0664-2.2988-0.0735-0.0172-0.18555-0.0576-0.33789-2e-3zm-120.1 17.277-0.0957 0.25195c-0.64731 1.7131-1.0282 3.3838-0.69922 4.6055 0.46219 1.7164 2.0509 3.7845 4.1602 5.5039 1.8876 1.5387 2.8762 1.7819 14.547 3.7539 13.015 2.1991 23.337 4.3063 30.525 6.2285 13.307 3.5584 20.048 5.0561 38.85 8.6367 11.177 2.1285 40.386 8.0931 46.123 9.418 2.2879 0.52831 6.3912 1.4778 9.1191 2.1094 5.8746 1.3602 12.254 3.0771 14.68 3.9492 1.1532 0.41457 1.7939 0.65312 2.1328 0.61523 0.10813-0.0121 0.24486-0.0512 0.34961-0.18164 0.25787-0.32122-3e-3 -0.75036-0.21485-1.1621-0.60458-1.1775-2.0522-5.8399-2.6094-8.4668-0.13308-0.62738-0.18631-1.2562-0.30469-1.9082l-0.0391-0.2207-2.75-0.89844c-4.7775-1.5587-31.913-8.1993-44.998-11.018-3.7816-0.81454-15.218-3.3542-25.41-5.6426-16.356-3.6725-36.572-7.8898-54.438-11.354-11.456-2.2211-24.266-4.0867-28.658-4.2129zm161.23 36.721-0.73047 0.19141c0.20963 0.79929 0.42309 1.6284 0.67579 2.4394l0.72265-0.22656c-0.24717-0.79333-0.45803-1.6038-0.66797-2.4043z" fill="#c8c1b3"/><path d="m471.81 355.38c-0.48892 0.028-0.45657 0.51022-0.38867 0.74218 0.42028 1.4354 0.85922 3.3561 1.4746 6.4609 0.72783 3.6722 0.57547 6.4899-0.58399 10.588l-0.67773 2.3965 2.041 3.4941c2.2251 3.8105 5.4517 10.21 9.1543 18.162 1.4028 3.0129 3.5527 7.3231 4.7793 9.5801 3.7575 6.9138 7.6624 14.895 11.6 23.699 4.8632 10.875 5.3358 11.671 8.2754 13.492 2.2517 1.3954 8.955 4.5528 9.9766 4.6699 0.5399 0.0619 0.73459-0.94657 0.85742-1.7656 0.43106-2.8745-0.0666-13.242-0.81054-17.215-2.7041-14.439-8.5319-29.855-15.957-42.211-5.3863-8.9632-11.275-15.846-21.611-25.279-5.1495-4.6999-7.1904-6.5034-7.8535-6.7637-0.0698-0.0274-0.17968-0.056-0.27539-0.0508z" fill="#51e241" fill-opacity=".5"/><path d="m264.27 405.4c-0.0867 1e-3 -0.24817 0.0119-0.37304 0.13672-0.22634 0.22634-0.0495 0.69391 0.10547 1.2031 1.4012 4.6043 9.4683 26.738 11.875 32.443 2.767 6.5599 7.2591 13.649 13.852 21.875 2.2022 2.7478 5.2134 6.1281 6.7012 7.5156 5.717 5.3319 13.749 11.26 19.588 14.453 3.5723 1.9537 8.9571 3.6769 14 4.4922 2.088 0.33756 10.978-0.0488 12.803-0.5625 2.6151-0.73628 6.6647-2.8295 9.248-4.7773 3.4556-2.6055 8.9796-8.1387 11.619-11.637 2.9889-3.961 4.6997-7.527 12.025-24.959 1.8597-4.4253 3.5639-9.8346 3.5156-11.154-6e-3 -0.16796-0.0457-0.43962-0.27735-0.56641-0.90316-0.49444-14.932-3.8522-17.895-4.3457-0.33048-0.055-0.68908-0.13123-0.875 0.0547-0.12041 0.1202-0.11785 0.26822-0.11914 0.30859-0.0116 0.36338 0.17407 1.4957 0.43164 2.8398 0.76325 3.9831 0.72772 11.384-0.0176 13.555-1.3202 3.8454-4.4165 8.755-6.6152 10.537-4.5713 3.7052-10.456 3.7548-14.543 0.16602-2.7438-2.4091-4.4207-6.1361-5.7266-12.951-1.355-7.0715-1.0961-13.066 0.89453-20.529 0.11148-0.41794-0.32235-0.7235-0.73437-0.94727-3.5872-1.9481-23.17-6.871-36.891-9.1602-6.5076-1.0857-10.742-2.0874-21.562-5.1152-7.9078-2.2127-10.413-2.8847-11.029-2.875zm163.06 63.42-1.8145 1.0918c-5.6662 3.271-20.138 14.28-25.93 19.719-6.4284 6.0363-19.337 18.525-21.459 20.764-3.6228 3.8222-9.1709 9.7032-10.52 11.154l-0.38672 0.41602 0.53321 0.19726c0.42176 0.15477 1.979 0.84507 2.2305 0.91406l0.19532 0.0527 0.15234-0.13281c0.99354-0.86819 1.7734-1.5504 3.5156-3.1973 2.8028-2.6494 5.6856-5.7211 7.1816-6.9727 1.5182-1.2701 4.0578-3.2372 4.4434-3.8789 0.62322-1.0374 16.611-15.909 20.625-19.309 4.3785-3.7078 13.53-11.115 18.303-14.277 2.5225-1.6713 5.6089-3.7512 5.7695-4.1699 0.22982-0.59881-1.1476-1.6674-1.7051-1.8613l-0.83984-0.29101c2e-3 -6e-3 0.023-7e-3 -0.0957-0.0859z" fill="#a6ed9e"/><path d="m258.04 406.4c-0.11051 3e-3 -0.2128 0.0366-0.2793 0.0566-1.2172 0.36746-6.3336 2.739-7.6406 3.5703-5.0638 3.2205-13.672 12.974-18.578 21.014l-1.9219 3.1484 1.0664 3.7578c1.6469 5.8094 7.001 19.932 8.1426 21.402 0.2299 0.29618 2.3834 1.5975 4.7852 2.9492 2.4004 1.3509 5.1565 2.9161 6.1211 3.4785 3.641 2.123 14.203 7.9064 21.932 12.008 24.655 13.083 61.778 30.357 91.393 42.525 2.5819 1.0609 3.6641 1.4755 4.6992 1.8555l0.23632 0.0859 0.17188-0.18359c1.3435-1.4456 6.8896-7.3289 10.512-11.15 2.0778-2.1921 15.005-14.701 21.428-20.732 5.7479-5.3973 20.203-16.387 25.787-19.611l2.1875-1.2227-0.51562-0.3418c-0.47132-0.31342-0.53685-0.31759-1.0957-0.6582-4.0474-2.4668-11.331-7.4864-16.619-11.453-2.0191-1.5144-5.0471-3.5975-6.7305-4.6309-7.6978-4.7255-11.617-8.5052-15.186-14.605-0.57882-0.98948-1.1067-1.8162-1.3359-1.9902-0.054-0.041-0.30635-0.19759-0.52734 0.0234-0.15732 0.15732-0.56741 1.5484-1.0156 3.1152-1.2355 4.3187-2.4959 7.6336-5.6348 14.799-1.5806 3.6081-3.5955 8.218-4.4785 10.242-0.87953 2.0163-2.2586 4.8085-3.0606 6.2031-3.7826 6.5776-12.705 15.632-19.352 19.639-5.7653 3.4752-9.7656 4.4948-17.645 4.4785-5.9158-0.0122-9.098-0.51968-14.908-2.3809-6.8985-2.2098-15.568-7.7095-25.373-16.125-8.3226-7.143-18.477-20.702-23.525-31.42-2.8359-6.0211-8.9983-23.789-11.211-32.338-0.72888-2.8161-1.3577-5.2261-1.502-5.3809-0.0963-0.10335-0.21567-0.13015-0.32617-0.12695zm-1.3106 86.725c-0.0668 0.0126-0.13082 0.0429-0.18945 0.10156-0.206 0.20601-0.0928 0.48246-0.0449 0.5918 0.39763 0.90799 3.1176 4.6519 6.0508 8.3379 3.7107 4.6632 11.308 12.11 15.793 15.477 9.5121 7.1412 16.471 11.627 23.541 15.168 13.569 6.7954 28.833 10.898 46.521 12.512 1.453 0.13256 2.7358 0.2979 3.2207 0.40429 0.0115 3e-3 0.023 3e-3 0.0332 6e-3 9e-3 2e-3 0.0173 6e-3 0.0254 8e-3 7e-3 2e-3 0.0151 2e-3 0.0215 4e-3 6e-3 1e-3 0.0107 5e-3 0.0156 6e-3 4e-3 1e-3 8e-3 8.7e-4 0.0117 2e-3 3e-3 9.8e-4 7e-3 3e-3 0.01 4e-3l-0.0762-0.0586c0.6572 0.6572 1.1261 0.12852 2.123-1.4043 0.54175-0.83296 1.2226-1.8839 1.5137-2.332l0.77539-1.1934-3.3691-1.418c-13.531-5.6982-34.334-15.657-69.416-33.229-12.952-6.4872-23.831-11.853-25.959-12.812-0.176-0.0793-0.40123-0.21162-0.60156-0.17382z" fill="#8bd079"/><path d="m244.98 9.541c-0.39838 0-0.38522 0.37314-0.38867 0.42188-0.0327 0.46056-0.0129 2.5277-0.0371 3.2148l-2e-3 0.04297 8e-3 0.04102c1.4796 7.7174 7.0433 45.053 10.246 69.188 1.8546 13.976 2.9507 21.52 5.123 35.273 2.7276 17.269 5.0866 32.907 7.8613 52.092 1.4003 9.6813 3.1997 21.348 3.998 25.93 2.8126 16.142 3.5792 20.873 3.8418 23.16l0.0684 0.60742 0.51367-0.33399c5.013-3.2719 11.103-5.4731 22.348-8.2715 13.196-3.2838 19.873-5.6681 27.541-9.8438 4.8397-2.6355 12.089-7.4485 15.299-10.162 1.3365-1.13 2.7054-2.1169 3.0078-2.2129 0.66728-0.21177 1.59 0.32957 2.4727 1.7578 0.62711 1.0147 0.66905 1.3806 0.82422 9.3438 0.1067 5.4758 0.034 9.3116-0.20508 11.098-0.7716 5.7629-3.8774 20.438-4.9707 23.537-0.32109 0.91007-0.57219 1.4975-0.375 1.8027 0.33159 0.5133 0.92246-0.0444 1.5215-0.52539 0.5489-0.44074 1.784-1.2175 2.7402-1.7188 0.97687-0.51205 3.6967-2.0356 6.0527-3.3906 9.1401-5.2567 18.56-9.6159 30.225-13.986 0.5478-0.20526 1.5759-0.69311 2.2891-1.0859 0.67809-0.3735 2.3454-1.0814 3.6953-1.5625 2.2776-0.81164 2.8415-1.1033 2.3418-2.0371-0.43122-0.80575-1.5782-4.6837-3.9394-13.498-4.4863-16.747-8.2205-25.25-17.936-40.861-1.3662-2.1955-3.7869-6.2924-5.3809-9.1055-6.927-12.225-16.871-28.841-17.736-29.549-0.58395-0.47792-3.4674-4.8902-8.1543-12.611-4.6617-7.6796-6.2138-10.085-9.8887-15.312-1.1717-1.6667-2.602-3.886-3.1777-4.9258-1.3941-2.5176-4.0211-6.195-8.9766-12.57-8.6818-11.169-12.173-14.797-32.43-33.721-15.727-14.692-19.677-17.937-31.092-25.539-3.4359-2.2883-6.3645-4.1976-7.0195-4.5742-0.0712-0.040905-0.16679-0.11133-0.30859-0.11133zm1.4785 39.387-0.75195 0.08203c0.0685 0.8309 0.0981 1.3317 0.16797 2.1543l0.0625 0.72852 0.82812-0.69922zm-231.41 2.4238c-0.32237-0.07727-0.66193-0.15377-0.94726 0.0059-0.7681 0.42971-0.14829 1.8959 1.416 5.8535 0.9828 2.4865 2.6255 6.8509 3.6504 9.6953 1.0274 2.8513 2.546 6.7465 3.377 8.6602 1.8021 4.1506 9.0005 18.509 12.658 25.254 1.4301 2.6371 3.742 7.0661 5.1367 9.8418 4.7071 9.3678 9.6966 18.205 17.576 31.135 2.5737 4.2234 5.5232 9.1187 6.5527 10.875 1.0366 1.7683 4.2159 6.8819 7.0684 11.371 2.8503 4.4858 7.5229 12.042 10.385 16.791 2.8662 4.7563 9.0329 14.481 13.705 21.611 4.6706 7.1284 10.317 15.788 12.549 19.242 4.4067 6.8214 7.0623 10.514 11.842 16.469 1.6916 2.1076 5.2886 6.7843 7.9922 10.391 5.5773 7.4398 7.1539 9.4272 12.836 16.178 4.0512 4.813 6.4772 7.8646 17.527 22.045 12.253 15.724 21.292 26.842 24.857 30.57 1.2584 1.3158 4.6598 4.3366 7.5684 6.7246 6.6661 5.4732 7.8303 6.6081 8.2226 7.7969 0.64945 1.9678-0.91252 4.0755-3.041 4.0781-0.43379 5.3e-4 -2.0745-0.42469-3.5488-0.96484-3.8038-1.3936-10.727-3.0951-14.93-3.6699-5.1612-0.70588-23.726-2.0831-28.062-2.0801-8.5046 6e-3 -22.759 1.3244-33.021 3.0527-7.4039 1.2469-18.761 3.5906-22.459 4.6367-10.685 3.0224-21.58 8.802-34.508 18.285-2.1521 1.5786-3.7544 2.7969-4.0879 3.1055l-0.51562 0.47656 0.68164 0.16797c1.549 0.38067 9.3614 3.4772 20.002 8.041 12.678 5.4376 20.188 8.5144 30.955 12.688 14.109 5.4684 19.419 7.6511 36.725 15.084 17.652 7.5819 24.21 10.612 34.055 15.736 15.263 7.9445 25.682 13.445 33.232 17.523 0.64565 0.34927 0.71913 0.41741 1.3262 0.74805 5.5226 3.0028 9.8655 5.4204 12.002 6.7695l-0.12305 0.31055h0.64258l0.13672 0.0879 0.0352-0.0879h6e-3l0.13086-0.3418 0.74804-1.8848-0.84375-3.7109c-2.2429-9.8621-3.4116-20.542-4.0527-37.125-0.39798-10.293-0.16175-25.972 0.31836-26.869 0.12313-0.23007 0.50934-0.5272 0.79492-0.59766 0.25273-0.0624 6.6423 1.329 14.131 3.1738 19.126 4.7116 26.993 6.4456 39.223 8.6484 13.135 2.3659 36.622 5.5009 52.992 7.0723 0.96178 0.0923 7.2282 0.74062 13.916 1.4395 22.261 2.3262 30.994 3.055 48.178 4.0215 11.696 0.6578 33.994 0.49665 42.139-0.30859 4.7261-0.46723 8.9333-1.0409 9.7109-1.3008 0.099-0.0331 0.39063-0.14276 0.39063-0.4336 0-0.13634-0.0853-0.27952-0.15625-0.40625-0.64788-1.1566-3.9146-6.2128-6.3379-9.877l-0.0234-0.0352-0.0312-0.0293c-4.3056-4.0785-11.204-10.912-20.279-20.311-12.237-12.673-28.526-25.768-41.443-33.305-0.83638-0.48797-1.3696-0.85164-1.9004-1.2188l-0.10156-0.0703-0.12305 4e-3c-2.3734 0.0643-3.6377-0.0674-4.1289-0.5586-0.84658-0.84658-0.85828-1.8351-0.0527-2.6406 0.0345-0.0345 0.20135-0.0386 0.39453-0.17383l0.0371-0.0274 0.0293-0.0332c0.0108-0.0122 0.0133-0.0214 0.0215-0.0332-0.0232 0.0212-0.12885 0.0733 0.1543-0.0234l0.0137-6e-3 0.0156-6e-3c0.25685-0.11305 0.83618-0.25305 1.4941-0.32226l0.0234-2e-3 0.0234-4e-3c1.0652-0.24627 1.9279-0.45876 4.0762-0.89063 10.983-2.2079 23.945-5.854 31.471-8.8535 6.1558-2.4534 9.7974-4.2019 25.574-12.281 7.9167-4.0542 16.377-8.2759 18.787-9.375 1.4863-0.67786 2.2039-0.96474 2.9102-1.2344l0.11133-0.043 0.62695-0.92187-5.3691-0.4336c-8.0225-0.64778-14.345-1.3925-21.494-2.5352-23.354-3.7325-41.987-4.209-60.754-1.543-7.0394 1-20.849 3.8117-32.121 6.5391-0.74123 0.17935-1.5862 0.31857-1.8301 0.31836-0.12372-1e-4 -1.6124-0.99898-3.1934-2.3223-5.4614-4.5713-12.034-6.8397-21.814-7.584-3.1713-0.24134-4.5095-0.48474-5.3594-0.92773-0.70336-0.3666-1.6861-0.68555-2.209-0.68555-1.0454 0-2.7274-0.75744-4.5879-2.1621-1.2629-0.9535-2.8501-2.9928-7.4258-9.582-3.2136-4.6278-7.9529-11.298-10.531-14.82-2.576-3.5195-6.608-9.0628-8.9629-12.318-23.586-32.606-33.932-44.407-60.693-69.217-17.188-15.935-26.077-23.525-37.471-32.002-8.1853-6.0897-47.523-31.885-63.711-41.781-19.173-11.72-31.9-18.144-60.367-30.468-12.011-5.1997-27.568-11.366-30.541-12.078zm529.18 132.12-2.5527 0.27344c-1.1178 0.11906-5.6353 0.57906-10.035 1.0234-25.779 2.6036-50.143 7.9444-93.348 20.449-4.6628 1.3496-11.573 3.302-15.355 4.3398-8.5682 2.351-27.758 8.6352-35.236 11.539-18.563 7.2079-21.117 8.3012-31.471 13.48-5.3817 2.692-8.3273 4.3973-12.271 6.8984l-0.0215 0.0137-0.0215 0.0176s0.12799-0.13085-0.0508 0.0352c-0.71871 0.66274-1.9842 1.4835-4.2871 2.7188-1.8396 0.98675-5.2161 3.1993-7.5039 4.916-4.5062 3.3813-8.3362 5.9428-10.002 6.7598 0.45027-0.71081 1.1933-1.8492 2.2324-3.3809 7.4645-11.003 12.958-26.545 16.885-47.684 0.73526-3.9578 1.5172-7.7242 1.6875-8.2383 0.14182-0.42806 0.33959-0.64513 0.59375-0.91016l0.19531-0.20312-0.0918-0.16016c2e-5 -3e-3 -2e-5 -7e-3 0-0.01 5e-5 -6e-3 -5e-5 -0.0112 0-0.0176 5.1e-4 -0.0641 0.0585-0.50977-0.3789-0.50977-0.28191 0-1.0458 0.57287-1.7812 1.1699-1.946 1.5797-9.184 6.2618-12.639 8.1699-8.1543 4.504-16.656 7.5937-28.42 10.32-12.374 2.868-19.608 5.4948-24.258 8.8398-2.3232 1.6713-5.2594 4.0332-5.8867 4.7461-0.0697 0.0792-0.19141 0.20339-0.19141 0.39648 0 0.14216 0.0834 0.25881 0.13477 0.3418 0.47288 0.76328 2.8746 4.1385 5.7539 8.0859 7.9202 10.858 13.366 18.453 16.418 22.902 2.1164 3.0848 2.8002 3.891 3.7617 4.0723 0.5503 0.10371 4.1393 0.68132 8.0117 1.291 8.9959 1.4164 12.769 2.2795 21.215 4.8516 7.996 2.435 12.806 4.2985 19.018 7.3691l4.6211 2.2852 6.0254-1.2578c12.551-2.6205 21.563-3.5556 34.459-3.5781 12.083-0.0211 22.598 0.86703 37.223 3.1484 10.57 1.6489 15.728 2.2015 25.426 2.7246 5.175 0.27912 5.5473 0.37206 5.9394 0.84961 0.76439 0.93087 0.61924 2.0917-1.0176 5.0098-2.9387 5.239-5.5408 8.2296-11.492 13.188-8.5855 7.1522-13.702 9.9902-22.904 12.717-2.2008 0.65208-4.1565 1.2764-4.3965 1.4883-0.24204 0.21372-0.10562 0.49652-0.0508 0.58985 0.36545 0.62205 2.8538 2.8551 6.7441 6.2344l0.25586 0.22266 0.24804-0.23047c0.61824-0.56973 3.4716-2.4738 6.7383-4.4356 4.8266-2.8986 7.8161-5.0102 13.334-9.4141 3.9018-3.114 8.5262-6.755 10.275-8.0898 5.3387-4.0743 12.251-10.215 17.156-15.242 7.1636-7.3422 15.446-16.813 18.867-21.576 1.6948-2.36 5.3775-7.4738 8.1836-11.361 2.8078-3.8899 6.8514-9.6665 8.9883-12.838 2.1312-3.1631 6.1744-8.8441 8.9844-12.625 5.9626-8.023 10.836-14.872 14.908-20.969 3.1618-4.7344 5.734-8.9374 8.0703-12.967-0.68445 1.9641-1.2526 3.691-2.1777 6.125l0.70703 0.27148c1.701-4.4044 2.7584-7.4514 3.5156-9.8887l-6e-3 -2e-3c6.7e-4 -1e-3 1e-3 -3e-3 2e-3 -4e-3l0.0195-0.0332 0.0117-0.0371c0.19815-0.64085 0.79545-2.1519 0.89453-2.6113zm-417.85 228.76c-1.4988 1.1238-2.9507 2.3668-4.3867 3.6484l0.50391 0.5625c1.4292-1.2756 2.8602-2.4991 4.3359-3.6055zm-47.854 2.3887c-0.22042 0.18183-0.12552 0.42918-0.10742 0.49218 0.16995 0.59159 1.2192 3.1609 2.5273 6.2207 6.1889 14.476 8.9734 18.817 22.289 34.752 5.2116 6.2369 21.954 25.214 26.215 29.713 0.16698 0.17632 2.2459 2.536 4.5605 5.1758 7.6573 8.733 27.834 28.395 34.344 33.463 1.3742 1.0697 2.8137 3.732 2.8613 5.2402 0.0542 1.7179-0.70616 2.3716-8.1836 6.1406-18.033 9.0895-25.907 14.246-37.67 24.68-2.2282 1.9763-15.156 13.843-16.504 15.15-0.40616 0.3941-0.45361 0.92186 0.19336 0.99219l0.17969 0.0195 0.1289-0.12695 2e-3 -2e-3 0.02-0.0234c0.28992-0.34134 0.47571-0.59025 0.96484-0.80469 1.724-0.75583 13.171-4.289 21.758-6.6973 16.013-4.4911 23.756-5.9647 41.859-7.9688 12.648-1.4002 23.886-2.2169 33.854-2.4551 9.9672-0.23813 18.658 0.10283 26.219 1.0176l0.51758 0.0645h0.30274l0.082-0.26368c0.92894-2.9205 2.831-6.053 5.6836-9.166 1.0483-1.1441 2.9958-2.8105 4.3301-3.7051 2.9394-1.9706 10.617-5.7525 14.508-7.1426l3.6504-1.3047-2.6406-1.4121c-2.7924-1.4915-7.0051-4.7017-12.459-9.5059-5.593-4.9267-7.2774-6.8648-19.197-22.092-3.3654-4.2991-5.2464-7.2769-7.3535-11.633-1.9421-4.0147-3.8313-9.577-4.8789-13.859l-0.0547-0.22461-0.22461-0.0527c-1.7989-0.42551-7.9766-3.8547-17.377-9.7832-11.824-7.4568-21.359-13.94-24.719-16.59l-0.041-0.0332-0.0488-0.0195c-0.29614-0.12182-1.5115-0.73094-1.6992-0.7793-1.8332-0.47208-7.3166-2.8166-15.613-6.6953-4.0508-1.8937-9.1725-4.1655-11.387-5.0488-2.1988-0.87719-6.5142-2.7069-9.5879-4.0664-5.6936-2.5183-13.898-5.7721-21.137-8.3828-2.1917-0.79041-6.648-2.5709-9.9004-3.957-4.8106-2.0503-21.692-8.2033-25.27-9.2539-0.39486-0.11597-0.78454-0.24676-0.99609-0.0723zm394.01 36.705c-0.26338 0.0681-0.57211 0.20748-0.89844 0.35156-5.307 2.3431-27.618 14.873-32.057 18.018-0.49102 0.34785-0.92432 0.64567-0.9082 0.98632 6e-3 0.12274 0.0907 0.24499 0.12109 0.28125 0.23548 0.28098 1.2988 1.0784 2.5234 1.9102 1.3528 0.91878 3.2437 2.3075 4.2031 3.082 0.96834 0.7818 1.853 1.4834 2.0586 1.5195 0.16787 0.0295 0.3214-0.0846 0.36133-0.11523 0.38304-0.29405 1.8851-1.7019 3.6465-3.4082 5.1565-4.9952 15.487-13.768 20.83-17.689l2.1856-1.6055-0.61915-1.582c-0.28424-0.72677-0.63643-1.4842-0.82617-1.6738-0.14001-0.13995-0.35771-0.14233-0.62109-0.0742zm-339.61 52.236c-3.0397 1.8917-5.9415 3.9987-8.8086 6.2715l0.46875 0.59375c2.8511-2.2601 5.7288-4.3518 8.7383-6.2246zm-14.359 11.004c-1.0242 0.93663-2.0867 2.0005-3.1172 3.0117l0.53125 0.53906c1.0323-1.013 2.0825-2.0639 3.0977-2.9922zm-6.3223 6.2715c-3.3931 3.553-6.8752 7.4111-10.678 12.061l0.58594 0.48047c3.7883-4.6321 7.2566-8.4762 10.639-12.018zm292.39 25.318c-1.2424 3.1693-2.2188 6.0864-3.041 8.998l0.72657 0.20703c0.81519-2.8866 1.7841-5.7812 3.0176-8.9277zm-3.166 9.3691c-0.68489 2.4684-1.1725 4.9972-1.6387 7.5742l0.74219 0.13282c0.46526-2.5721 0.94764-5.0697 1.623-7.5039zm-167.16 8.2793-0.75391 0.0371c0.0645 1.3734 0.37135 2.679 0.97461 3.875l0.67578-0.33984c-0.54807-1.0866-0.83225-2.2912-0.89648-3.5723zm165.15 1.043c-0.48538 3.0041-0.85202 6.3034-1.1855 9.9082l0.7539 0.0703c0.33284-3.5975 0.69617-6.8769 1.1777-9.8574zm-177.62 2.543-0.0684 0.7539c3.41 0.31138 6.709 0.68877 9.8574 1.1582l0.11328-0.7461c-3.1655-0.47199-6.4725-0.85873-9.9024-1.166zm-88.232 4.6973-2.1191 0.57813 0.1582 0.73828c0.71165-0.11146 1.3658-0.18098 2.084-0.29102l0.67969-0.10351zm266.78 24.336-0.73047 0.19141c0.20963 0.79929 0.42309 1.6284 0.67579 2.4394l0.72265-0.22656c-0.24717-0.79333-0.45803-1.6038-0.66797-2.4043z" fill="#3882ca"/><path d="m223.53 368.37 0.20898 11.045c0.26334 13.964 0.94161 24.873 2.1524 34.555 0.67166 5.3711 1.761 12.264 2.1191 13.197 0.0663 0.17284 0.22935 0.3498 0.48047 0.34961 0.46523-3.5e-4 1.0421-0.73113 1.9277-1.9922 5.039-7.1754 12.192-14.677 16.889-17.734 1.7381-1.1315 4.8008-2.5551 7.2168-3.3516 0.10254-0.0338 0.24121-0.0576 0.36524-0.16211 0.35878-0.30231 0.0554-0.62366-0.14063-0.7168-0.35389-0.16816-1.7144-0.46772-5.6992-1.373-7.4394-1.6902-8.0254-2.0783-8.0254-3.9863 0-0.9717 1.3213-2.299 2.2852-2.2988 0.89755 1.7e-4 17.39 2.4011 20.947 3.0488 2.8468 0.51836 10.526 2.4586 18.916 4.7812 5.159 1.4281 11.248 2.7297 15.818 3.3789 7.6935 1.0927 25.177 5.3 34.336 8.2656 10.505 3.4016 15.445 4.6805 33.635 8.6992 9.765 2.1574 17.165 4.2372 18.643 5.2051 0.36734 0.24069 0.98677 0.8893 1.3672 1.4512 2.5968 3.8355 7.5587 10.02 9.6035 11.953 1.4365 1.3584 4.4928 3.6003 7.5488 5.5449 2.8085 1.7872 7.2625 4.847 9.8965 6.8008 7.2996 5.4146 17.157 11.854 19.715 12.912 0.28418 0.11758 0.58064 0.22374 0.8125 0.13477 0.19505-0.0748 2.2531-1.3365 4.4883-2.7617 5.6634-3.6112 18.357-10.836 25.863-14.721 3.1315-1.6206 5.7297-3.0608 6.2988-3.5176 0.0622-0.0499 0.22461-0.17565 0.22461-0.38477 0-1.2724-9.1175-21.065-14.957-32.619-6.9258-13.704-10.704-20.67-11.953-21.939-0.15131-0.15384-0.33797-0.32553-0.59961-0.30664-0.36793 0.0265-1.9766 0.27419-3.6504 0.55469-8.8373 1.481-31.552 2.2487-45.059 1.5156-23.49-1.2748-35.487-2.3555-76.918-6.9277-20.904-2.307-44.789-6.1839-60.918-9.8867-6.199-1.4232-30.123-7.5299-32.613-8.3203z" fill="#44b187"/><path d="m467.44 381.21-2.7285 2.2344c-2.8591 2.3422-5.335 3.5683-11.197 5.5098-2.4799 0.82126-4.5741 1.5157-4.6992 1.6133-0.25445 0.1983-0.11756 0.46128-0.0996 0.50586 0.17066 0.42395 1.1082 2.2039 2.2715 4.332 4.6665 8.5366 7.6947 14.358 11.721 22.521 3.8363 7.779 10.895 23.167 11.84 25.799 0.2413 0.67181 0.59974 1.4531 1.0469 1.4531 0.25139 0 1.7332-0.69508 3.3242-1.4941 1.5797-0.79339 4.2009-1.9222 5.8242-2.5098 1.6407-0.59393 3.5926-1.3921 4.3516-1.7793 1.2014-0.6129 1.2216-0.62206 3.5645-0.17968 1.225 0.2313 2.3273 0.39183 2.6328 0.36914 0.0404-3e-3 0.19206-0.0221 0.29101-0.1211 0.23291-0.23289 0.0875-0.64086-0.0391-1.0117-1.1462-3.3596-8.6013-18.89-15.125-31.428-1.3723-2.6375-2.9825-5.8723-3.5742-7.1816-2.2527-4.9844-6.6838-14.002-7.918-16.104zm-226.01 84.051 1.0645 2.457c2.7274 6.286 4.8937 10.973 6.6602 14.412l2.1328 4.1562 2.8984 1.3438c7.5369 3.497 17.518 8.3861 34.127 16.719 19.018 9.541 33.154 16.4 47.531 23.061 9.9803 4.6233 21.807 9.8931 22.393 9.9043 0.42227 7e-3 1.3464-1.1034 2.2285-2.2832 0.87741-1.1735 2.6994-3.5263 4.0469-5.2266l2.7617-3.4863-6.1152-2.5176c-27.801-11.435-67.263-29.799-88.979-41.408-9.1004-4.8651-22.766-12.441-28.229-15.648z" fill="#58a152"/><path d="m245.3 13.121-0.74804 0.05664c-0.16122 4.5852-0.0965 18.552 0.19336 23.484 0.13328 2.2676 0.56658 7.5756 0.95898 12.342l2e-3 0.0098 0.25196 1.8711-0.10157 0.08594 0.0156 0.19336c0.0589 0.69388 0.0839 1.1569 0.14258 1.8301 0.52184 5.9834 1.1047 12.965 1.2949 15.514 2.5059 33.584 8.9299 88.835 15.531 133.59 1.1396 7.7272 2.3556 15.414 2.7109 17.115 0.3487 1.6699 0.62826 3.3641 0.6289 3.6348 1e-3 0.48441 0.40497 1.3032 0.84375 1.8516l1.0156 1.2715 2.1777-2.0781c1.9578-1.8668 3.9147-3.3626 5.9922-4.7188l0.19531-0.12695-0.0273-0.23242c-0.26539-2.3114-1.033-7.06-3.8457-23.203-0.79623-4.5698-2.5943-16.232-3.9941-25.91-2.7752-19.188-5.1371-34.827-7.8652-52.1-2.1716-13.749-3.2652-21.283-5.1191-35.254-3.2037-24.141-8.7649-61.464-10.254-69.231zm-226.9 63.424c-0.11254 0.03644-0.18865 0.2486-0.20508 0.7207-0.04126 1.1857 2.929 17.88 4.9355 27.91 4.8161 24.074 8.0688 38.269 11.23 49.012 1.2954 4.4017 8.0138 24.674 11.936 36.016 0.88226 2.5516 2.4788 7.1965 3.5469 10.32 2.7787 8.1271 4.7725 12.937 8.543 20.604 5.6481 11.484 16.389 28.42 23.92 37.721 8.1035 10.008 10.652 13.242 14.072 17.857 4.4919 6.0606 7.2099 9.3514 13.898 16.826 2.833 3.166 6.5791 7.4825 8.3242 9.5898 3.2733 3.9527 5.1581 6.0265 11.83 13.016 2.118 2.2187 4.4618 4.7074 5.2031 5.5254l1.4726 1.625 8.0977-0.2168c6.4861-0.17243 9.5937-0.086 17.326 0.47461 10.676 0.77388 17.483 1.4788 20.266 2.0938 1.059 0.23403 2.0936 0.44157 2.3906 0.46485 0.48147 0.0376 0.47175-0.37418 0.39258-0.56836-0.15262-0.37434-1.7634-2.1047-3.8066-4.125-4.2762-4.2283-11.77-13.296-24.363-29.482-11.402-14.655-15.989-20.41-20.936-26.264-2.591-3.066-7.4652-9.2433-10.83-13.729-3.3685-4.4901-7.8765-10.367-10.018-13.057-4.4372-5.5749-7.2243-9.5182-12.012-17.002-1.8592-2.9064-7.0174-10.827-11.465-17.604-4.4454-6.7734-10.774-16.777-14.064-22.229-3.2939-5.4576-7.9318-12.949-10.305-16.648-2.3691-3.6935-5.939-9.4483-7.9336-12.789-1.997-3.3448-4.9777-8.2769-6.623-10.959-4.9602-8.0854-11.467-19.627-15.549-27.58-2.1233-4.1373-5.071-9.7573-6.5508-12.488-2.8495-5.2592-10.021-19.667-11.375-22.848-0.34917-0.82005-1.012-2.2968-1.3496-2.1875zm33.912 88.475c0.81614 0.0619 1.4561 0.68277 2.9355 2.791 3.9059 5.5659 11.865 16.303 18.699 25.221 5.9515 7.766 17.121 22.815 20.295 27.346 7.1212 10.166 15.332 21.301 23.018 31.215 6.5883 8.4979 23.155 29.001 28.197 34.895 2.406 2.8124 6.7015 8.0444 9.5469 11.627 2.8477 3.5855 6.8725 8.6045 8.9414 11.154 3.782 4.661 4.1138 5.5268 3.4004 6.2402-0.8209 0.82092-1.6639 0.46127-10.158-5.9434-6.6986-5.0506-20.582-15.956-28.551-22.43l-2.3984-1.9473 2.166 6.1797c2.6274 7.4959 6.5727 18.134 7.4766 20.146 0.87128 1.94 0.91178 2.747 0.4668 3.2832-0.27585 0.3324-1.4917 0.46261-1.8848 0.17383-0.45731-0.33598-3.9001-4.6461-7.0586-8.877-3.6891-4.9415-11.049-14.387-15.277-19.611-3.8674-4.7775-5.9806-7.5732-10.385-13.74-1.824-2.5541-5.5417-7.649-8.2617-11.32-6.2744-8.4688-11.341-16.436-18.516-29.127-0.89547-1.584-3.0945-5.4725-4.8887-8.6406-4.485-7.9192-7.1158-13.408-10.643-22.195-3.5776-8.9141-6.9974-19.503-8.8359-27.361-1.9134-8.1787-1.7995-8.4063 0.67774-8.9629 0.4261-0.0957 0.75056-0.13696 1.0371-0.11524zm489.99 22.365c-5.5132 10.005-13.049 21.319-24.965 37.352-2.8145 3.787-6.868 9.4794-9.0059 12.652-2.1322 3.1645-6.1719 8.9328-8.9766 12.818-2.8063 3.8879-6.4884 9.0008-8.1836 11.361-3.3908 4.7215-11.645 14.16-18.797 21.49-4.8886 5.0104-11.752 11.109-17.07 15.168-1.7572 1.341-6.3876 4.9863-10.291 8.1016-5.5 4.3895-8.4564 6.4755-13.252 9.3555-3.2756 1.9672-6.132 3.859-6.8594 4.5293l-0.31054 0.28516 0.31836 0.27734c1.2299 1.0683 1.9001 1.6857 3.5586 3.1016l3.8555 3.2891 2.8535-1.7812c1.4414-0.89988 4.3256-2.7008 6.4062-4.002 2.0758-1.2981 6.5348-3.9565 9.9082-5.9082 10.091-5.8381 15.003-9.2752 21.045-14.732 6.6916-6.0436 17.067-17.895 23.156-26.449 4.3266-6.0779 18.826-28.559 24.057-37.299 9.6109-16.058 10.953-18.519 14.59-26.762 3.1883-7.2253 7.1703-17.754 8.6543-22.555zm-199 7.418-0.37891 0.39454c-0.25188 0.26265-0.55687 0.56525-0.76562 1.1953-0.22648 0.68355-0.97487 4.3777-1.7109 8.3398-3.9174 21.087-9.3809 36.506-16.768 47.395-1.4915 2.1986-2.7753 4.104-2.7793 4.3633 3e-3 0.35188 0.31221 0.48333 0.54493 0.47071 1.0062-0.0546 5.6067-3.0732 11.082-7.1816 2.2698-1.7032 5.6044-3.887 7.4062-4.8535 2.3376-1.2539 3.7104-2.1347 4.4863-2.8574l-0.46093-0.5957c-1.1512 0.72991-2.0174 1.2246-3.5274 2.2168-2.6265 1.7259-5.9372 3.6566-7.4258 4.4121 0.53173-1.0342 1.4473-3.3473 3.8574-9.7285 1.8498-4.8976 3.6108-11.493 5.1758-19.391l1.5-7.584 0.12304-8.1133c0.0649-4.3016 0.0393-7.6478-0.125-7.9902zm-250.53 30.258-0.61719 0.4375c6.1315 8.6608 14.13 19.419 21.186 28.494l0.59766-0.46485c-7.0501-9.0672-15.041-19.815-21.166-28.467zm27.484 55.844c-1e-5 0.86332 3.4234 10.733 5.4473 15.836l0.70313-0.27734c-2.0224-5.0993-5.3926-14.907-5.3926-15.559zm333.33 3.8828-1.1152 0.42578c-0.71834 0.27425-1.4516 0.56911-2.9531 1.2539-2.4385 1.1121-10.899 5.3352-18.818 9.3906-15.773 8.0773-19.385 9.8082-25.512 12.25-7.4854 2.9833-20.378 6.6111-31.338 8.8144-2.1611 0.43445-3.0426 0.65017-4.0996 0.89454l0.125 0.74414c0.73336-0.077 1.3914-0.14505 2.9512-0.21875 10.605-0.50111 16.822-1.4363 27.879-4.1973 4.4988-1.1234 10.698-2.6512 13.777-3.3945 3.0858-0.74503 6.6988-1.7704 8.0469-2.2891 7.0671-2.7192 8.7603-3.4694 11.418-5.0586 3.0683-1.8348 5.4458-3.6418 10.484-7.957 3.5445-3.0356 5.2726-4.9042 7.2773-7.875zm-85.482 33.393c-6e-3 2e-3 -0.2909 0.0473-0.3789 0.10156-0.0618 0.0381-0.0991 0.0874-0.1211 0.12109-0.0192 0.0294-0.0317 0.0573-0.0391 0.0762-7e-3 0.017-0.0124 0.0315-0.0156 0.043-3e-3 0.0104-4e-3 0.0198-6e-3 0.0274-2e-3 7e-3 -3e-3 0.0144-4e-3 0.0195-8.6e-4 5e-3 -1e-3 8e-3 -2e-3 0.0117-5.1e-4 3e-3 -2e-3 6e-3 -2e-3 8e-3 -2e-3 9e-3 0.0742-0.13672 0.0742-0.13672l0.5 0.56055c0.0557-0.0389 0.15526-0.0778 0.27149-0.12891zm11.852 3.7148-3.9004 0.30078c-2.0972 0.16241-2.9834 0.15758-4.1582 0.18946l-1.1562 0.0312 0.95118 0.65625c0.53396 0.36929 1.0798 0.74388 1.9473 1.25 12.85 7.4971 29.085 20.543 41.283 33.176 9.0795 9.4031 15.987 16.246 20.303 20.334l0.57422-0.48242c-0.42247-0.63887-0.65029-1.0496-1.0195-1.5957-8.9201-13.193-18.67-24.474-30.057-34.77-6.2436-5.6452-15.571-12.973-21.709-17.055zm-324.45 36.271-0.15039 0.13867s-0.06905 0.0526-0.14258 0.10742c-0.04838 0.0361-0.135 0.0973-0.17578 0.15625-0.18131 0.2623 0.0178 0.53785 0.11328 0.64844 0.76456 0.88551 5.3417 3.9695 9.1094 6.1328 1.9608 1.1258 6.3712 3.4309 9.8066 5.123 2.0691 1.0192 5.5024 2.7199 8.6836 4.2949l0.0059 4e-3 0.0059 2e-3c0.78918 0.35666 1.6707 0.7635 1.9199 0.94336l0.02539 0.0176 0.02734 0.0137c1.3435 0.66569 2.5694 1.2702 3.7324 1.8476 4.4897 2.2292 10.325 5.0418 12.971 6.25 9.2349 4.218 28.518 13.859 33.566 16.779 2.8175 1.6298 9.9455 5.6996 15.842 9.0469 5.8951 3.3466 12.952 7.4142 15.676 9.0371 2.7303 1.6267 6.2639 3.6552 7.8555 4.5059 3.2374 1.7304 21.488 11.975 35.67 20.025l9.8535 5.5918 0.86523-2.9102c0.39486-1.3324 1.5873-4.6247 2.6504-7.3066l1.3457-3.3926-0.26367-0.16797c-4.9216-3.1458-17.962-10.17-46.891-25.229-9.8656-5.1352-16.446-8.1748-34.105-15.76-17.309-7.4343-22.634-9.6213-36.748-15.092-10.757-4.1694-18.261-7.2449-30.932-12.68-10.645-4.5658-18.403-7.6584-20.119-8.0801zm70.867 54.061c-1.4302 1.0722-2.8138 2.2626-4.1856 3.4824l-0.01-8e-3 -0.22851 0.20508-0.0176 0.0156c-0.69154 0.61846-1.4282 1.1762-2.1211 1.8477-1.6257 1.5753-2.975 2.9447-3.2754 3.3457-0.0334 0.0446-0.11915 0.11841-0.11914 0.30079 0 0.26502 0.2212 0.3606 0.2832 0.39453 0.57584 0.31513 3.2354 1.3416 6.4453 2.5039 3.5585 1.2886 9.0572 3.4674 12.219 4.8398 3.9312 1.7066 6.0817 2.505 6.7852 2.3652 0.43081-0.0855 1.8454-0.58547 3.1953-1.0684l0.79492-0.2832-0.74219-0.4043c-0.9873-0.53681-1.4099-0.73561-2.9805-1.6348-2.7863-1.5952-7.0173-4.1313-9.4004-5.6348-2.3898-1.5077-5.7172-3.5312-7.3945-4.4961-1.368-0.78694-2.1701-1.3354-2.8047-1.8301 1.3205-1.1669 2.6559-2.2954 4.0137-3.3398zm100.56 27.729-1.625 5.0605c-0.70519 2.1963-1.3611 4.3351-1.4707 4.8203-0.23479 1.0394 0.2905 1.3768 4.0625 3.5234 2.2342 1.2715 4.0958 2.3405 4.2207 2.3633 0.65272 0.13159 0.43408-0.49505 0.42383-0.52735-0.0922-0.29067-0.60817-1.6293-1.252-3.2539-0.71318-1.7997-1.9018-4.9926-2.6406-7.0957zm-52.834 12.916-0.3789 0.64649c3.3961 2.6789 12.957 9.1766 24.789 16.639 9.4041 5.9309 15.681 9.4221 17.604 9.877l0.60156 0.14258-0.14649-0.59961c-0.48967-2.0021-0.83984-3.7622-0.83984-4.8203v-1.5957l-12.291-6.0645c-6.644-3.2776-16.039-7.914-20.879-10.303-4.0546-2.0011-6.8915-3.2776-8.459-3.9219zm-49.518 56.584-0.47266 0.375c-7.2248 5.7273-14.228 12.888-22.551 23.064-1.793 2.1924-3.3413 4.1673-3.3848 4.4727-0.03949 0.27763 0.18443 0.50088 0.35352 0.62304 1.3555 0.97936 8.5362 2.9758 16.096 4.4746 4.4048 0.87332 17.426 3.1077 18.387 3.1562 0.55416 0.028 1.984-0.76621 3.2773-1.6894 2.1417-1.5287 5.5822-3.6579 9.6719-6.0234l0.48047-0.27929-0.43555-0.34571c-4.471-3.5398-14.212-15.23-19.742-24.037-1.0544-1.6794-1.3885-2.4767-1.5488-3.2012zm83.203 48.369c-9.9931 0.23877-21.252 1.0571-33.916 2.459-18.128 2.0069-25.938 3.4928-41.98 7.9922-8.5949 2.4106-19.976 5.9065-21.859 6.7324-0.70888 0.31079-0.98698 0.71641-1.2363 1.0098l-0.46484 0.54492 0.71094 0.0742c0.19192 0.0204 0.43805 8e-3 0.92383-0.0605 0.69803-0.0993 2.1322-0.27072 3.1855-0.3789 1.0935-0.11232 7.0538-1.0435 13.303-2.0742 1.7987-0.29667 3.387-0.44082 5.1738-0.72071l0.0215-2e-3 1.6875-0.46094 0.17578 0.20117 0.20508-0.0312c39.853-6.1059 73.062-7.5138 97.898-3.8105 1.9813 0.29542 3.6479 0.52447 4.0352 0.54883 0.043 3e-3 0.0378 0.15185 0.32617-0.084 0.19852-0.16237 0.13287-0.38636 0.125-0.41797-0.0426-0.1712-0.43848-1.0453-0.90625-1.9726-1.1433-2.2667-1.2134-5.0044-0.26757-7.9766l0.13867-0.43554-0.94922-0.11524c-7.6049-0.9201-16.337-1.2602-26.33-1.0215z" fill="#2766a2"/><path d="m505.75 456.03c-5.316 0.11305-5.6321 0.16265-9.0469 1.3379-3.7462 1.2893-8.6636 3.6311-11.701 5.5742-2.8653 1.8328-10.568 7.3854-13.082 9.4297-11.116 9.0401-26.422 26.629-30.826 35.451-0.97286 1.9489-1.1546 2.6746-1.1484 4.6504 0.0131 4.3392 2.1772 8.6801 6.0391 12.219 3.7092 3.3988 12.072 7.9328 24.105 13.096 9.1019 3.905 22.771 10.328 34.059 16.006 5.722 2.8781 11.989 5.9041 13.943 6.7324 14.587 6.1808 30.145 11.81 35.393 12.787 5.302 0.98707 10.371 0.5798 15.6-1.2559 1.6724-0.58714 4.6966-1.6566 6.7207-2.373l3.625-1.2832 13.633-0.41406 3.7383 1.1445c6.1441 1.88 9.2788 2.6948 10.555 2.7012 0.84437 5e-3 2.781-0.68717 4.4297-1.3672l0.14062-0.0586 0.0606-0.14063c1.9274-4.4375 3.7265-9.1362 5.6875-15.049 3.2771-9.8808 4.5374-14.46 5.2207-19 0.77628-5.1585 1.2765-11.813 1.3008-17.334 0.0222-5.0632-4e-3 -5.2676-0.92969-6.8418-1.2652-2.1524-4.506-5.5414-6.9688-7.2988-2.4058-1.7167-5.0362-2.6226-11.549-4.041-8.4134-1.8323-16.256-4.739-35.959-13.34-24.153-10.543-34.6-16.767-44.188-26.27l-4.1992-4.1621-1.1211-0.44336-0.082 4e-3c-0.88576 0.0456-1.7074 0.0794-3.6426-0.12304-2.6272-0.27478-6.5063-0.40807-9.8066-0.33789z" fill="#656565"/><path d="m299.73 268.54c-0.23414-0.0222-0.52974-0.0581-0.6875 0.0996-0.22563 0.22564-0.0785 0.44275-0.0547 0.48633 0.13824 0.25262 0.89052 1.0484 1.7988 1.9414l1.9277 1.8945 5.4121 0.53125c6.2798 0.61429 5.6774 0.49055 11.215 2.2598 6.105 1.9506 8.1853 3.0569 12.135 6.4414 1.038 0.88954 2.1352 1.7201 2.5605 1.5859 0.15425-0.0486 2.2219-0.66551 4.5527-1.3574 2.1012-0.62374 3.8314-1.1861 4.2578-1.418 0.0474-0.0258 0.24918-0.11222 0.25195-0.37305 3e-3 -0.25701-0.21901-0.38607-0.32031-0.44922-0.92216-0.57485-5.2764-2.3668-8.7148-3.5957-3.9039-1.3953-15.316-4.6869-19.418-5.5996-2.8036-0.62376-12.784-2.2452-14.916-2.4473zm112.59 46.928c-0.57619 4e-3 -7.551 1.6976-14.012 3.3594-3.074 0.79064-7.1287 1.6727-9.0039 1.9609-1.7064 0.26227-3.19 0.5833-3.541 0.80859-0.0575 0.0369-0.2207 0.16107-0.2207 0.36914 0 0.39495 0.35504 0.6543 0.70703 0.6543 0 0-0.0832-0.0135-0.0586-2e-3 0.36407 0.16973 1.9812 1.248 3.7559 2.5352 19.165 13.9 32.3 26.847 44.672 44.029 3.0353 4.2155 8.3643 12.217 10.156 15.248 0.78236 1.3232 1.0946 2.1636 2.1035 2.2578 0.88276 0.0824 2.266-0.45498 5.2422-1.4453 2.1175-0.7046 4.7605-1.6928 5.8789-2.1973 1.7565-0.79226 5.952-3.8768 6.8008-4.9453 0.10328-0.13003 0.22071-0.27562 0.2207-0.49414 0-0.49988-2.3474-4.2499-6.7793-11.09-1.8815-2.9038-5.0472-7.801-7.0352-10.881-9.2751-14.369-16.014-22.282-24.576-28.822-2.1069-1.6092-6.0599-4.7994-8.7852-7.0898-2.4575-2.0654-4.6115-3.7858-5.2109-4.1465-0.0666-0.0401-0.16152-0.1103-0.31445-0.10937zm-238.74 110.71c-0.55841 0-0.43032 0.64234-0.34375 0.90039 0.0419 0.12483 0.34874 3.3318 0.63476 7.0273 0.28629 3.699 0.72624 8.2296 0.97852 10.076 0.24998 1.8297 0.45117 3.8571 0.45117 4.4668 0 1.3563 0.23857 1.5316 2.2246 2.4219 1.0845 0.48613 8.2564 3.8781 15.912 7.5254 14.325 6.8246 17.898 8.5368 32.158 15.426 7.6334 3.6875 18.422 8.8294 18.744 8.8887 0.91233 0.1693 0.24873-0.99372-0.0527-1.5703-0.27429-0.52463-2.369-5.1233-4.6133-10.139l-4.1328-9.2305-7.2461-4.2422c-3.9301-2.3008-13.48-7.8324-21.225-12.291-7.7436-4.4583-16.458-9.5034-19.359-11.211-5.7698-3.3952-12.305-7.1533-13.697-7.8828-0.15323-0.0803-0.29618-0.16602-0.43359-0.16602zm317.67 15.783-3.4551 1.7559c-1.8263 0.92837-4.9396 2.4756-6.918 3.4356-1.8986 0.92127-3.3805 1.7946-3.6953 2.2207-0.0469 0.0635-0.11914 0.19231-0.11914 0.32422 0 0.99261 1.0659 3.3585 1.8926 3.0371 0.318-0.12362 3.2434-1.4827 6.7109-3.1016l6.1992-2.8945 4 0.64648c2.2634 0.36539 4.2708 0.66992 4.3867 0.66992 0.98679 0-0.0582-1.3698-0.76758-2.3184-1.3176-1.7619-1.4928-1.8518-4.7852-2.791zm0.84375 7.8145-3.0879 1.8223c-1.6192 0.9553-4.6692 2.6347-6.7774 3.7324-7.7846 4.0534-10.678 6.1126-21.033 14.973-4.7108 4.0307-18.118 17.238-21.77 21.445-14.479 16.684-24.091 30.581-30.062 43.484-7.5305 16.272-9.7782 24.373-11.195 40.359v0.0156l-2e-3 0.0176c-3e-3 1.1839 0.01 2.0889-0.0371 4.1484-0.0615 2.6794-0.12258 3.8764-0.18945 5.0918l-2e-3 0.0176 2e-3 0.0176c0.25667 7.103 1.6677 13.379 4.5801 20.232l1.4336 3.3711 3.0606 1.2812c1.6031 0.67039 4.269 1.8437 5.9219 2.6074 1.4905 0.6887 2.8608 1.2516 3.1465 1.3086 0.0447 9e-3 0.24426 0.0526 0.39844-0.10156 0.14206-0.14207 0.1183-0.30182 0.11718-0.35352-0.0104-0.4836-0.29303-2.4129-0.67578-4.6992-2.2911-13.685-1.8562-20.481 1.8652-29.67 5.1832-12.798 18.611-24.983 30.941-28.107 7.7469-1.9632 13.622-1.5943 22.834 1.459 10.309 3.4169 18.397 8.5613 23.398 14.848 11.275 14.172 15.343 32.613 11.021 49.945-1.2346 4.9517-3.0303 9.2905-5.8438 14.109l-1.3496 2.3086 10.229-0.20117c5.2585-0.10322 11.581-0.40987 14.064-0.68555 5.511-0.61168 17.033-2.4978 21.803-3.5703 1.9458-0.43752 5.53-1.4067 7.9648-2.1524 3.9816-1.2194 4.7621-1.4829 4.4941-2.4531-0.0753-0.27276-0.25602-1.798-0.36524-3.2891-0.24151-3.297 0.41627-8.0868 1.9844-14.326 3.1257-12.437 6.967-20.186 12.924-26.168 3.2051-3.2187 6.0654-5.0966 9.7441-6.4082 3.0324-1.0811 7.9114-1.3271 10.891-0.55273 5.1522 1.3392 9.1395 4.5941 11.127 9.0488l1.0137 2.2695 1.8223-3.3652c2.1501-3.9671 3.8669-7.5508 5.5059-11.324l0.37305-0.85546-0.86328 0.35546c-1.6336 0.67378-3.5262 1.312-4.1367 1.3086-1.1109-6e-3 -4.1974-0.78772-10.336-2.666l-3.8555-1.1797-6.9414 0.21093-6.9395 0.20899-3.7363 1.3242c-2.0239 0.7164-5.0452 1.7823-6.7168 2.3691-5.1038 1.7918-10.048 2.19-15.213 1.2285-5.1219-0.95355-20.663-6.565-35.236-12.74-1.9171-0.81232-8.1785-3.8367-13.896-6.7129-11.295-5.6812-24.988-12.115-34.102-16.025-12.019-5.1564-20.267-9.6384-23.891-12.959-3.7382-3.4253-5.7806-7.5758-5.793-11.664-6e-3 -1.8939 0.12307-2.4208 1.0664-4.3106 4.3372-8.6884 19.566-26.205 30.627-35.201 2.4801-2.017 10.179-7.5672 13.012-9.3789 2.9978-1.9177 7.8316-4.2195 11.541-5.4961 3.4074-1.1727 3.5043-1.1859 8.8164-1.2988 3.2839-0.0698 7.1114 0.0619 9.7129 0.33399 1.982 0.20731 2.8657 0.17299 3.7598 0.12695l0.11914-0.72852-2.6445-1.0469c-4.2281-1.6722-6.0646-2.1299-12.178-3.0449-2.4554-0.36752-6.2248-1.1051-8.373-1.6367zm-121.05 78.338c-0.0724-0.011-0.23083-0.0359-0.37109 0.0508-0.22382 0.13833-2.1882 2.5086-4.4082 5.2617-2.4014 2.9781-3.5198 4.4994-3.7031 5.1211-0.0635 0.21527-0.075 0.53397 0.21679 0.69727 0.80027 0.44786 13.16 5.3222 18.697 7.373 2.9914 1.1078 7.8155 2.9132 10.719 4.0117 2.9045 1.099 5.4433 2.0245 5.7656 2.043 0.52024 0.0297 0.92155-0.7549 1.1426-1.4414 0.38873-1.2073 2.2914-6.2991 3.4434-9.2109l0.79102-1.9961-4.584-1.6641c-7.2742-2.6405-16.483-6.0972-22.078-8.2871-2.6718-1.0458-4.9796-1.8604-5.6309-1.959z" fill="#5d5d5d"/><path d="m55.533 175.44c-0.15156 2e-3 -0.29608 0.0911-0.35938 0.32617-0.05405 0.20074-0.0028 0.47999 0.06836 0.83008 0.64044 3.1508 4.7756 15.745 7.4902 22.531 4.758 11.895 5.487 13.367 14.332 29.004 8.4882 15.006 13.346 22.767 18.797 30.014 1.7848 2.3731 5.0871 6.906 7.3398 10.072 5.9977 8.4302 7.8635 10.932 12.662 16.986 2.3748 2.9962 5.6778 7.2727 7.3379 9.502 1.498 2.0116 2.7539 3.6297 3.1191 3.9668 0.0417 0.0385 0.30898 0.29845 0.58203 0.0254 0.12686-0.12686 0.11957-0.26318 0.11914-0.31055-2e-3 -0.26578-0.27009-1.0703-0.60937-1.9258-2.0224-5.0993-5.3926-14.907-5.3926-15.559 0-1.7315 1.2989-2.9703 2.4668-2.5996 0.6811 0.21617 10.629 8.1769 26.479 21.246 1.4276 1.1772 2.6717 2.2031 2.873 2.2402 0.66104 0.12212 0.46106-0.43301 0.41406-0.54102-0.0898-0.20646-0.61302-0.89181-1.2734-1.7246-1.2512-1.5779-2.7744-3.3652-11.646-13.66-5.0053-5.808-21.01-25.42-26.389-32.338-7.0501-9.0672-15.041-19.815-21.166-28.467-5.6079-7.9212-13.362-18.356-23.662-31.85-3.0894-4.047-7.2584-9.5906-9.2637-12.316-2.0072-2.7284-3.6819-5.0009-3.9121-5.2637-0.09498-0.10844-0.25469-0.19158-0.40625-0.18945zm78.482 231.75-2.748 1.6621c-3.2105 1.9408-6.3265 4.3865-9.3301 7.0723l-0.32422 0.28907 0.33203 0.28125c0.67953 0.57544 1.737 1.2592 3.3066 2.1621 1.6666 0.95872 4.9822 2.9758 7.3672 4.4805 2.3916 1.5089 6.6347 4.0514 9.4277 5.6504 1.5803 0.90472 2.0204 1.1121 2.9961 1.6426l0.14844 0.0801 0.1582-0.0566c0.28822-0.10304 0.38644-0.11787 0.70117-0.23437 3.0436-1.1266 10.113-4.6238 12.83-6.3477l1.9121-1.2148-2.2402-1.3457c-0.95503-0.57398-5.2539-3.0309-9.5664-5.4688-4.3112-2.4371-9.3998-5.3553-11.305-6.4824zm1.5312 94.742-2.6191 1.6289c-3.0397 1.8916-5.9414 3.9987-8.8086 6.2715l-0.18555 0.14844 0.0508 0.23046c0.18873 0.85266 0.56851 1.7226 1.6465 3.4395 5.5566 8.85 15.338 20.607 19.916 24.23l0.20118 0.1582 0.22265-0.12695c3.9431-2.2809 8.4758-4.7765 13.084-7.1699 1.936-1.0056 3.5957-1.8807 3.6855-1.9648 0.34841-0.32595 0.0461-0.51488 0.0156-0.55273-0.23836-0.29631-1.2818-1.1996-2.5918-2.291-1.4224-1.1851-7.5233-7.0421-13.514-12.984z" fill="#194976"/><path d="m587.88 579.74c-9.8538 0.0732-17.791 10.091-22.334 27.732-2.2474 8.7272-2.5866 14.057-1.0645 18.035 1.2917 3.3753 3.1943 4.9926 6.9922 5.9844 0.96746 0.25264 2.0205 0.62096 2.293 0.7793 0.88438 0.51399 4.3351 0.23434 6.7051-0.41602 5.4889-1.5063 11.901-10.433 15.883-21.818 2.1362-6.1089 2.7694-8.8951 2.9727-13.129 0.40163-8.3668-1.4946-13.77-5.8301-15.936-2.0076-1.0029-3.1362-1.2508-5.6172-1.2324z" fill="#32622c"/><path d="m629.59 538.12c-0.21586 7e-3 -0.33896 0.1755-0.38281 0.25195-0.14535 0.25433-0.24049 0.77726-0.41992 1.7207-1.375 7.2297-7.1277 23.803-11.303 32.549-3.0641 6.419-9.381 16.649-10.619 17.359-1.0243 0.58788-1.0337 0.85017-0.90039 3.6387 0.18149 3.796-0.3591 7.941-1.6582 12.66-0.60462 2.1964-1.2207 4.2991-1.3301 4.5781-0.0596 0.1521-0.0946 0.45699 0.18946 0.60547 0.16603 0.0868 0.33847 0.0484 0.4414 0.0195 0.76509-0.21452 3.1931-1.912 5.1191-3.6074 3.2378-2.85 7.3709-10.253 10.311-18.391 1.9044-5.2719 5.3234-16.784 6.7422-22.701 2.2885-9.5451 4.988-26.266 4.4238-27.959-0.1011-0.30332-0.22727-0.73789-0.61328-0.72461zm-171.51 18.18c-7.1849-0.0167-11.274 1.2413-17.539 5.3789-3.8782 2.5613-9.5575 7.9576-12.301 11.689-4.3821 5.9613-7.1797 14.25-7.1797 21.297 0 3.5268 0.95804 11.639 1.8262 15.494 0.52002 2.3092 2.0593 6.5625 2.8476 7.7988 0.19239 0.30168 0.67468 1.4114 1.0391 2.4297 1.5819 4.4208 7.1312 11.45 11.773 14.939 5.6327 4.2342 13.711 7.2692 21.1 7.9316 3.4623 0.31041 9.0126 0.0938 12.574-0.49023 6.453-1.0581 13.508-4.7549 18.012-9.4395 5.0977-5.3025 8.9022-13.52 10.336-22.264 0.23841-1.454 0.41907-5.1117 0.41601-8.3496-6e-3 -6.5159-0.54526-9.8493-2.5742-15.938-2.2474-6.7437-7.6675-15.552-11.84-19.211-4.8961-4.293-11.194-7.4633-19.904-10.051-3.7741-1.1212-4.3582-1.207-8.5859-1.2168z" fill="#232323"/></g><path d="m715.75 1015.7c-12.461-1.6168-23.909-5.8822-34.113-12.71-7.8142-5.2286-17.627-16.469-22.044-25.25-1.4531-2.889-1.7613-3.1713-5.6897-5.2097-2.2844-1.1853-4.9292-2.5882-5.8775-3.1176-3.3246-1.856-27.808-13.474-30.875-14.651-10.56-4.0524-53.321-13.588-116.4-25.957-22.607-4.4328-31.158-6.3681-50.749-11.486-14.236-3.7185-30.062-7.0056-51.751-10.748-6.325-1.0915-14.875-2.6686-19-3.5046-26.603-5.392-55.733-7.4306-86.75-6.0708-24.549 1.0762-58.477 4.5247-86.75 8.8172-20.388 3.0953-25.95 3.7167-37.421 4.1801-11.066 0.44708-12.444 0.24656-13.594-1.978-1.087-2.1021-0.90334-3.5932 0.7109-5.7706 2.3025-3.1056 30.634-30.983 38.054-37.444 3.7125-3.2327 6.8136-6.041 6.8914-6.2408 0.0778-0.19977-2.2848-0.74706-5.25-1.2162-14.51-2.2958-30.453-6.0426-37.323-8.7718-8.4741-3.3663-11.318-5.325-11.318-7.7952 0-2.2742 14.216-21.339 21.795-29.23 2.7748-2.8888 6.0373-6.3499 7.25-7.6913 5.3631-5.9328 17.622-15.688 28.885-22.986l2.1806-1.4129-1.468-1.5811c-0.80741-0.86961-3.9262-4.3907-6.9306-7.8245-3.0044-3.4339-7.825-8.8436-10.713-12.022-14.907-16.407-22.854-25.487-33.245-37.985-23.247-27.96-27.739-35.378-37.74-62.313-2.2335-6.0155-4.388-11.786-4.7878-12.822-1.4013-3.6338-0.49128-6.2188 2.6036-7.3955 2.0938-0.79607 3.3914-0.56476 14.071 2.5084 19.377 5.5757 28.637 8.6761 40.23 13.47 4.06 1.6788 7.4601 3.0524 7.5557 3.0524s1.4428-1.6568 2.9938-3.6817c4.6913-6.1249 14.306-14.734 20.976-18.782l1.9074-1.1576-1.6574-1.0132c-4.0093-2.4511-34.095-17.257-47.157-23.208-7.8562-3.5789-42.619-21.256-51.25-26.061-7.7059-4.2901-12.234-7.3453-20.75-13.999-8.5105-6.6501-8.7546-7.643-3.1625-12.864 11.18-10.439 30.16-23.623 43.863-30.47 6.2389-3.1169 16.007-6.922 22.521-8.7729 9.7888-2.7813 35.265-7.7223 48.718-9.4486 4.0609-0.52111 7.4857-1.0498 7.6107-1.1748 0.125-0.125-3.3046-3.9086-7.6213-8.408s-10.558-11.449-13.869-15.444c-3.311-3.995-9.5505-11.23-13.866-16.077-10.17-11.424-14.86-17.055-20.237-24.292-2.4082-3.2417-5.9707-8.0316-7.9166-10.644-1.9459-2.6125-6.5828-8.4625-10.304-13-8.7637-10.686-11.706-14.587-18.098-24-5.2173-7.6831-15.855-24.516-19.748-31.25-4.8627-8.4102-12.696-25.132-16.395-35-5.7853-15.432-25.381-73.893-28.994-86.5-6.8955-24.059-18.7-79.565-23.021-108.25-0.72498-4.8125-2.432-15.95-3.7934-24.75-1.3614-8.8-2.9217-19.262-3.4673-23.25-0.54567-3.9875-1.2266-8.1535-1.5131-9.2578-0.67773-2.6119 0.01095-4.4412 2.0736-5.5078 1.5054-0.77848 1.835-0.744 7.6465 0.79992 12.049 3.201 31.025 10.116 54.573 19.886 10.817 4.4877 16.769 7.0523 34.5 14.863 12.344 5.4378 36.818 18.016 48.25 24.798 28.918 17.156 96.451 60.891 112.75 73.019 17.894 13.315 32.874 26.062 57.5 48.931 1.65 1.5323 4.9125 4.5583 7.25 6.7245 25.412 23.55 40.904 39.917 57.731 60.994 3.5129 4.4 6.6134 8.225 6.8901 8.5 0.60853 0.60483 0.38445-1.4322-1.6225-14.75-4.8995-32.512-13.196-98.496-17.509-139.25-2.5367-23.971-5.6314-58.778-7.0019-78.75-0.29248-4.2625-0.74081-10-0.9963-12.75-1.6525-17.788-1.9072-32.852-0.98433-58.228 0.54482-14.98 0.75797-16.822 2.0655-17.842 0.85375-0.66596 5.5628-2.1807 6.7794-2.1807 0.50293 0 4.914 2.251 9.8024 5.0022 23.354 13.144 33.042 20.674 64.586 50.204 27.122 25.39 30.237 28.596 41.576 42.794 11.295 14.144 17.692 23.177 27.438 38.75 3.7863 6.05 10.646 16.738 15.243 23.75 13.442 20.502 25.568 40.406 35.49 58.25 2.2936 4.125 6.4616 11.212 9.2621 15.75 17.346 28.105 22.335 39.593 31.022 71.439 2.5789 9.4539 4.7868 17.287 4.9064 17.406 0.11953 0.11953 6.1471-1.7018 13.394-4.0476 7.2473-2.3458 16.327-5.1588 20.177-6.2511 3.85-1.0923 13.862-3.939 22.25-6.3259 53.629-15.262 68.364-19.061 99-25.528 13.572-2.8649 40.111-7.0375 50.5-7.9398 2.0625-0.17914 8.7-0.88769 14.75-1.5745 6.05-0.68686 11.788-1.1434 12.75-1.0145 5.1029 0.68319 7.5224 2.1243 8.4903 5.0572 0.42975 1.3022 0.22431 2.648-1.1909 7.8015-3.754 13.67-13.005 37.272-21.059 53.728-8.6211 17.614-39.401 67.632-56.153 91.25-9.5476 13.46-20.947 26.819-32.663 38.276-13.916 13.608-22.582 19.776-43.174 30.728-2.75 1.4626-8.0375 4.3371-11.75 6.3878-3.7125 2.0507-7.822 4.2893-9.1322 4.9745l-2.3822 1.2459 6.2319 6.4322c8.4564 8.7282 14.263 16.444 28.733 38.183l12.3 18.478 0.38044-2.9778c0.4808-3.7632-1.3243-13.244-4.1741-21.922-1.076-3.2768-1.9564-6.4469-1.9564-7.0447 0-1.4784 2.0123-3.2612 3.6811-3.2612 0.78447 0 1.8357 0.49747 2.4678 1.1678 0.60562 0.64228 3.5761 3.1557 6.6011 5.5854 18.004 14.461 33.248 29.579 42.598 42.247 12.384 16.778 23.851 41.354 29.861 64 4.5534 17.157 5.945 30.937 4.474 44.303-0.27739 2.5204-0.26184 2.5566 1.2252 2.854 1.0989 0.21978 2.4435 1.4224 4.9722 4.4472 12.61 15.083 30.484 26.466 65.369 41.63 5.5 2.3907 13.488 5.8774 17.75 7.7481 15.065 6.6117 29.737 11.993 37.5 13.755 21.07 4.7803 23.686 5.9655 32.557 14.752 10.189 10.091 11.836 15.167 10.462 32.223l-0.61244 7.5972 2.8644 3.9705c3.7475 5.1946 5.3962 8.7421 6.4938 13.972 0.85595 4.0788 0.85797 4.5554 0.0428 10.139-1.3852 9.4887-4.7262 27.372-6.3722 34.109-2.1653 8.8625-7.4036 26.078-10.593 34.815-6.9548 19.05-14.534 30.747-24.002 37.041-5.9826 3.9772-11.814 6.7562-13.713 6.5346-1.6383-0.19126-1.7068-0.11828-4.1724 4.4418-4.3363 8.02-8.3868 13.73-12.891 18.171-7.0838 6.9852-11.905 8.9708-22.564 9.292-7.9275 0.23895-11.483-0.42895-17.786-3.3409-3.5389-1.635-4.3527-2.2623-6.0642-4.6749-1.0872-1.5326-2.0905-2.6728-2.2295-2.5338-0.52058 0.52058-14.93 4.7056-20.515 5.9581-6.7663 1.5176-25.019 4.423-33.656 5.3574-8.6662 0.93756-30.716 0.79726-39.588-0.2519l-7.088-0.8382-2.162 2.0425c-1.1891 1.1234-4.4611 3.5771-7.2711 5.4527-8.4209 5.6206-18.164 9.3479-27.391 10.479-4.1968 0.5143-17.62 0.6484-21 0.2098zm22-11.906c9.9713-1.6349 20.853-7.3377 27.81-14.575 7.8692-8.1855 13.771-20.905 15.996-34.473 0.36342-2.2163 0.6442-7.9033 0.63944-12.951-9e-3 -10.133-0.83535-15.248-3.99-24.714-3.4909-10.475-11.891-24.114-18.329-29.759-7.5648-6.6331-17.325-11.559-30.88-15.586-5.8867-1.7487-6.6508-1.8567-13.247-1.872-11.124-0.0258-17.368 1.8886-27.079 8.3022-6.0111 3.97-14.819 12.341-19.071 18.125-6.7845 9.2294-11.1 22.03-11.1 32.924 0 5.4568 1.4887 18.097 2.8358 24.079 0.8019 3.5609 3.2162 10.186 4.3729 12 0.35075 0.55 1.1074 2.3124 1.6814 3.9165 2.4313 6.7943 11.002 17.661 18.194 23.067 8.7199 6.5549 21.212 11.25 32.666 12.276 5.3699 0.4814 13.972 0.1459 19.5-0.7605zm-16.75-23.749c-1.5744-1.5744-1.2643-3.3169 0.78166-4.3928 2.7118-1.426 5.1533 2.831 2.6352 4.5948-1.4972 1.0487-2.2082 1.0067-3.4168-0.20197zm-27.389-7.7784c-2.5734-1.8025-0.40894-5.8804 2.5285-4.7636 2.3373 0.88864 2.3843 3.9148 0.0772 4.966-1.5466 0.70465-1.281 0.72529-2.6056-0.20247zm48.335-14.901c-0.81481-0.40392-1.2457-1.098-1.3508-2.1759-0.28419-2.9137 3.5726-4.1329 4.9474-1.564 1.2838 2.3988-1.1651 4.9453-3.5966 3.7399zm-32.661-10.606c-0.43214-0.43214-0.78572-1.3161-0.78572-1.9643 0-2.8107 3.5689-3.6626 4.9545-1.1826 0.65924 1.1799 0.64663 1.4538-0.12078 2.625-0.97876 1.4938-2.8366 1.7333-4.048 0.52191zm-29.686-9.8143c-0.92994-0.92996-0.70895-3.1464 0.41514-4.1637 1.3508-1.2224 3.5286-0.50426 4.1921 1.3825 0.3753 1.0671 0.28209 1.5642-0.44358 2.3661-1.0173 1.1241-3.2338 1.3451-4.1637 0.41515zm51.228-19.314c-1.6633-1.8379-0.51128-4.5856 1.9225-4.5856 2.478 0 3.6637 3.0181 1.8356 4.6725-1.1996 1.0856-2.7291 1.0502-3.7581-0.0869zm-32.716-6.864c-2.6472-1.8542-0.3455-5.9904 2.5893-4.6532 1.9956 0.90928 2.2649 2.8328 0.59725 4.2672-1.6028 1.3786-1.7448 1.3958-3.1866 0.38596zm119.14 77.061c8.5896-0.95338 26.574-3.8989 34-5.5687 3.025-0.68017 8.6053-2.1876 12.401-3.35 6.2089-1.9014 6.873-2.2136 6.6244-3.1136-0.15187-0.55016-0.41633-2.9128-0.58755-5.2503-0.3839-5.2409 0.65953-12.801 3.1156-22.574 4.8993-19.494 10.938-31.71 20.348-41.159 5.0618-5.0832 9.6019-8.0667 15.446-10.15 4.8196-1.7183 12.617-2.1134 17.363-0.87977 8.2135 2.1349 14.592 7.3254 17.778 14.467l1.0948 2.454 2.2784-4.204c7.2891-13.449 11.785-24.045 17.446-41.113 5.1174-15.429 7.074-22.548 8.1339-29.591 1.2088-8.0323 1.9857-18.399 2.0234-27 0.0347-7.8943 0.0166-8.0315-1.3676-10.386-1.9337-3.2897-6.9202-8.5084-10.722-11.221-3.6522-2.6062-7.6764-4.0105-17.829-6.2215-13.211-2.8773-25.501-7.435-56.297-20.878-37.77-16.488-54.152-26.231-69.224-41.169l-6.4735-6.4165-5.6539-2.2362c-6.577-2.6013-9.364-3.2981-18.899-4.7253-3.85-0.57627-9.7598-1.7308-13.133-2.5655l-6.1329-1.5177-4.6171 2.7238c-2.5394 1.4982-7.3171 4.1298-10.617 5.848-12.135 6.3185-16.58 9.484-32.75 23.319-7.3287 6.2706-28.284 26.912-33.954 33.447-22.603 26.045-37.581 47.708-46.881 67.802-11.762 25.415-15.241 37.965-17.449 62.948-1.5601 17.644 0.3784 30.774 6.7616 45.795l2.144 5.0455 4.5646 1.9089c2.5105 1.0499 6.6819 2.8871 9.2696 4.0828 2.5878 1.1957 4.7812 2.0978 4.8742 2.0048 0.093-0.093-0.374-3.4132-1.0378-7.3783-3.5908-21.449-2.9106-32.203 2.9526-46.68 8.1619-20.153 29.286-39.338 48.744-44.269 12.234-3.1004 21.531-2.5091 36.012 2.2904 16.184 5.364 28.93 13.46 36.834 23.394 17.731 22.286 24.13 51.288 17.333 78.551-1.9453 7.8019-4.7706 14.624-9.1952 22.202l-1.575 2.6977 14.927-0.29297c8.2096-0.16114 18.077-0.64259 21.927-1.0699zm89.575-1.0745c8.2838-2.2732 18.213-15.987 24.413-33.717 3.3282-9.5177 4.299-13.799 4.6132-20.346 0.62241-12.966-2.3169-21.114-8.7818-24.344-3.0744-1.5359-4.6923-1.8897-8.5123-1.8613-14.996 0.11141-27.256 15.428-34.327 42.885-3.502 13.599-3.9964 21.776-1.6823 27.823 1.9504 5.0966 4.7422 7.4822 10.523 8.9918 1.5277 0.39893 3.2055 0.97401 3.7284 1.2779 1.1462 0.66621 6.3541 0.2973 10.025-0.71015zm43.92-37.307c4.9617-4.3674 11.364-15.806 15.946-28.492 2.9674-8.2143 8.3035-26.183 10.516-35.408 3.5744-14.908 7.7307-40.939 6.9234-43.361-0.41379-1.2414-0.5109-1.0715-1.0709 1.8729-2.1611 11.363-11.165 37.299-17.706 51.001-4.7925 10.04-14.702 26.16-16.833 27.383-1.2986 0.74531-1.3174 0.83219-1.1111 5.1471 0.28722 6.0076-0.56717 12.544-2.6094 19.963-0.94547 3.4345-1.8902 6.6811-2.0994 7.2146-0.4292 1.0947 4.3402-2.0594 8.0439-5.3195zm-328.42-6.2755c-0.99923-1.9461-3.2494-9.2391-4.1266-13.375-1.447-6.8217-2.1748-13.586-2.1839-20.295-0.0141-9.9591 1.8558-28.006 3.7398-36.107 0.65565-2.8192 0.64392-2.9135-0.41205-3.3117-0.59781-0.22541-5.4744-2.0415-10.837-4.0358-21.012-7.814-28.598-10.721-37.39-14.326-5.0272-2.0614-9.3396-3.6752-9.583-3.5864-0.24348 0.0889-2.2053 2.5241-4.3597 5.4116-3.7633 5.044-3.9954 5.2541-5.917 5.3558-4.8063 0.25419-8.0015 0.0711-15.75-0.9025-26.159-3.2869-46.545-9.2023-67.078-19.464-11.073-5.5337-23.67-13.684-38.047-24.615-13.76-10.462-26.536-24.747-39.015-43.621l-3.9652-5.9972-16.822-8.0408c-9.2522-4.4224-18.899-9.0924-21.437-10.378-2.5382-1.2854-4.7363-2.3371-4.8845-2.3371-0.68472 0 2.4742 11.144 5.1023 18 3.9689 10.354 7.0905 15.457 17.508 28.624 3.7534 4.7442 8.5139 10.763 10.579 13.376 4.9296 6.2371 8.8915 10.346 16.93 17.557 10.363 9.2971 17.014 13.908 23.807 16.503 3.3334 1.2736 4.3443 2.6498 3.4262 4.6647-0.38047 0.83504-1.2408 1.4086-2.7037 1.8025-3.3175 0.8933-13.923 5.2256-19.041 7.7779-8.499 4.2387-14.839 8.3059-18.224 11.69-5.8721 5.8713-9.7845 14.233-8.643 18.472 0.67856 2.52 3.0562 5.65 6.3014 8.2954 2.8219 2.3004 4.2284 2.6598 22.458 5.74 20.344 3.4375 36.494 6.7327 47.75 9.7426 20.779 5.5567 31.288 7.8931 60.659 13.487 17.471 3.3271 63.101 12.645 72.091 14.72 3.575 0.82554 9.9875 2.3085 14.25 3.2954 9.1867 2.127 19.171 4.8145 23 6.1911 3.6032 1.2953 3.6434 1.2908 2.8197-0.31335zm-445.57-43.404c1.65-0.16946 10.988-1.6256 20.75-3.2358 67.591-11.148 123.2-13.696 164.5-7.5376 3.4375 0.51255 6.2957 0.89455 6.3516 0.84887 0.0558-0.0456-0.56291-1.4003-1.375-3.0103-3.7081-7.3514-0.5365-17.528 8.5545-27.45 1.6646-1.8166 4.7573-4.4633 6.8728-5.8815 4.6448-3.114 16.675-9.0367 22.798-11.224l4.4519-1.5904-2.9519-1.5766c-4.4097-2.3553-11.051-7.4204-19.58-14.934-8.7597-7.7162-11.441-10.802-30.069-34.597-5.2821-6.7475-8.2442-11.433-11.558-18.283-4.4798-9.2608-8.9953-24.041-8.9953-29.443v-2.1281l-18.875-9.3113c-10.381-5.1212-25.062-12.365-32.625-16.097s-14.65-7.0179-15.75-7.3011c-2.9531-0.7605-11.533-4.4372-24.5-10.499-6.325-2.9569-14.317-6.5002-17.761-7.8739-3.4435-1.3737-10.194-4.2371-15-6.363-8.8814-3.9283-21.688-9.0071-32.989-13.083-3.4375-1.2397-10.412-4.028-15.5-6.1963-8.3147-3.5437-39.985-15.025-40.43-14.658-0.0993 0.0819 1.6767 4.4926 3.9465 9.8017 9.6578 22.589 13.942 29.268 34.736 54.153 8.1326 9.7325 34.299 39.391 40.937 46.4 0.31273 0.3302 3.5279 3.9754 7.1448 8.1004 11.94 13.617 43.467 44.339 53.579 52.211 2.2786 1.7738 4.6138 6.0698 4.6948 8.6371 0.0972 3.0779-1.4051 4.2398-13.108 10.139-28.149 14.188-40.394 22.21-58.735 38.479-3.4666 3.0748-23.696 21.648-25.765 23.655-0.6592 0.63964-0.50787 0.69331 1.25 0.44333 1.1-0.15643 3.35-0.42307 5-0.59254zm446.28-38.596c0.61908-1.9228 3.5906-9.8733 5.3931-14.43l1.0106-2.5546-6.5899-2.3921c-11.369-4.1268-25.765-9.5307-34.511-12.954-4.6318-1.813-8.6153-3.1766-8.8522-3.0301-0.23687 0.1464-3.2686 3.7856-6.7371 8.0871-4.6886 5.8146-6.1298 7.9198-5.6181 8.2061 1.2504 0.69978 20.476 8.2793 29.129 11.484 4.675 1.7314 12.212 4.5527 16.75 6.2696 4.5375 1.7169 8.5138 3.1368 8.8362 3.1552 0.32243 0.0184 0.85789-0.81021 1.1899-1.8415zm-70.737-11.009c0.84636-1.3013 1.9111-2.9392 2.3661-3.6397l0.82727-1.2737-4.6161-1.9439c-21.156-8.9091-53.681-24.477-108.5-51.933-22.486-11.262-40.987-20.372-41.114-20.245-0.29781 0.29783 4.3383 6.7742 9.4275 13.17 5.7711 7.2524 17.601 18.845 24.569 24.077 14.845 11.145 25.693 18.135 36.694 23.644 21.124 10.579 44.905 16.973 72.48 19.489 2.8459 0.25964 5.3022 0.59983 5.4583 0.75597 0.54299 0.54298 0.87621 0.25215 2.4061-2.1001zm-339.67-0.70486c6.607-4.7161 20.947-13.029 35.627-20.654 3.025-1.5712 5.5575-2.9105 5.6278-2.9764 0.0703-0.0658-1.7297-1.6673-4-3.5588-2.2703-1.8915-11.788-11.038-21.15-20.325l-17.022-16.886-3.6936 2.2986c-16.622 10.344-30.708 23.524-48.854 45.712-2.8011 3.425-5.1229 6.4384-5.1596 6.6965-0.16337 1.1485 12.115 4.7023 25.231 7.3027 6.8826 1.3646 27.143 4.8454 28.645 4.9213 0.62197 0.0314 2.7416-1.0985 4.75-2.5321zm350.13-13.78c1.375-1.839 4.2242-5.5191 6.3315-8.1781l3.8315-4.8346-8.8315-3.6325c-43.451-17.872-105.13-46.578-139.08-64.727-14.223-7.6039-35.583-19.444-44.128-24.462l-2.3784-1.3966 0.94349 2.1745c4.2595 9.8172 7.6365 17.126 10.389 22.485l3.2413 6.3106 4.3415 2.0144c11.784 5.4677 27.388 13.112 53.341 26.133 29.711 14.906 51.793 25.619 74.25 36.022 15.594 7.2238 34.04 15.412 34.75 15.425 0.275 5e-3 1.625-1.495 3-3.334zm73.152-5.8545c8.1601-16.749 17.248-30.415 34.766-52.277 9.2982-11.604 11.996-14.717 18.433-21.27l5.423-5.5201-2.3873-1.6911c-9.163-6.4911-13.194-9.0447-13.758-8.7152-4.3952 2.5704-18.29 12.351-26.13 18.392-10.187 7.8507-24.666 20.681-43.256 38.331-5.0842 4.827-12.45 11.769-16.369 15.426-3.9188 3.6573-7.125 6.7995-7.125 6.9827 0 0.36508 16.203 6.7018 30 11.732 4.8125 1.7547 10.325 3.7724 12.25 4.4838 1.925 0.71139 3.755 1.3059 4.0666 1.3212 0.31166 0.0156 2.1502-3.2226 4.0857-7.1952zm-57.164-13.759c0.55144-0.89222 33.44-32.2 41.513-39.518 20.108-18.227 27.866-24.523 43.748-35.505 3.7125-2.5671 6.9293-4.8192 7.1484-5.0046 0.21915-0.18542-2.0778-1.8464-5.1043-3.691-6.3416-3.8651-17.741-11.72-26.013-17.925-3.1455-2.3593-7.8578-5.6025-10.472-7.2072-12.093-7.4237-18.291-13.387-23.929-23.026-1.0024-1.7136-1.8954-3.0428-1.9845-2.9538-0.0891 0.0891-0.73476 2.1644-1.435 4.612-1.9413 6.786-3.9236 11.992-8.8334 23.2-2.4696 5.6375-5.6189 12.838-6.9985 16-1.3795 3.1625-3.5433 7.55-4.8085 9.75-5.9519 10.35-19.991 24.599-30.445 30.901-9.0991 5.4847-15.486 7.1074-27.875 7.0818-9.2942-0.0192-14.349-0.82658-23.473-3.7492-10.88-3.485-24.504-12.138-39.85-25.309-13.054-11.204-28.996-32.495-36.907-49.293-4.4562-9.4612-14.087-37.241-17.552-50.631-1.1388-4.4-2.1335-8.0675-2.2104-8.1499-0.25222-0.27069-9.9576 4.1784-12.133 5.5621-7.8118 4.9682-21.202 20.123-28.843 32.644l-2.8678 4.6995 1.5938 5.6222c2.5704 9.0671 10.914 31.037 12.623 33.239 0.26324 0.33913 3.548 2.344 7.2994 4.4553 3.7514 2.1113 8.0582 4.5602 9.5708 5.4421 5.676 3.3096 22.177 12.343 34.25 18.749 38.51 20.436 96.487 47.413 142.75 66.421 10.191 4.1872 10.754 4.367 11.239 3.5835zm-43.239-55.712c4.022-1.1324 10.252-4.3541 14.252-7.3697 5.3596-4.0411 13.947-12.641 18.043-18.068 4.6142-6.1149 7.273-11.636 18.717-38.868 3.224-7.6717 6.0916-17.144 5.3184-17.567-1.4746-0.80727-28.256-7.173-28.625-6.8039-0.0883 0.0881 0.20441 2.0641 0.65025 4.3908 1.2054 6.2904 1.1789 17.904-0.0491 21.48-2.0838 6.0696-6.9863 13.865-10.522 16.731-7.3573 5.9634-16.86 6.0623-23.486 0.24456-4.4331-3.8923-7.0863-9.865-9.1376-20.569-2.1385-11.16-1.7285-20.583 1.4073-32.339 0.54275-2.0348-34.51-11.085-58.318-15.057-10.194-1.7008-16.833-3.2765-33.75-8.01-13.728-3.8414-16.988-4.6783-17.24-4.4266-0.42656 0.42657 14.681 42.059 18.843 51.927 4.2955 10.184 11.28 21.21 21.56 34.038 3.4327 4.2832 8.1188 9.5387 10.414 11.679 8.9119 8.3115 21.399 17.526 30.488 22.497 5.5135 3.0154 13.853 5.691 21.684 6.957 3.1779 0.51375 17.004-0.0914 19.75-0.86442zm-154.32-7.9308c-0.4673-0.89375-3.7191-8.0375-7.2262-15.875l-6.3766-14.25-11.162-6.5342c-6.1389-3.5938-21.062-12.234-33.162-19.2-12.1-6.9664-25.712-14.851-30.25-17.521-10.015-5.8932-21.522-12.495-21.78-12.495-0.10375 0-0.0944 0.28125 0.0209 0.625 0.11531 0.34375 0.57528 5.35 1.0222 11.125 0.44696 5.775 1.1331 12.845 1.5247 15.712 0.39164 2.8666 0.71208 6.0421 0.71208 7.0567 0 1.7801 0.10953 1.8938 3.125 3.2454 1.7188 0.77043 12.912 6.0637 24.875 11.763 22.383 10.664 27.967 13.342 50.25 24.107 11.927 5.7617 28.808 13.78 29.138 13.841 0.0758 0.0141-0.24449-0.70591-0.71177-1.5997zm324.02-12.257c8.0745-7.822 24.236-21.546 32.608-27.69l3.0526-2.2403-0.80264-2.0522c-0.44145-1.1288-0.96334-2.2129-1.1598-2.4092-0.97291-0.97245-52.946 28.198-52.876 29.677 9e-3 0.19061 1.7528 1.5259 3.875 2.9672 2.1222 1.4414 5.0961 3.6198 6.6086 4.8409s2.8375 2.2356 2.9444 2.2543c0.10688 0.0188 2.6944-2.3877 5.75-5.3477zm-19.526-13.566c8.8671-5.654 28.716-16.952 40.457-23.028 5.4312-2.8107 9.875-5.3181 9.875-5.5719 0-1.7936-14.185-32.65-23.308-50.702-12.023-23.79-17.953-34.514-19.043-34.435-0.4943 0.0356-3.0362 0.4231-5.6487 0.86091-13.873 2.325-49.397 3.5204-70.531 2.3734-36.714-1.9926-55.48-3.6827-120.22-10.827-32.674-3.6059-70.031-9.6687-95.25-15.459-9.704-2.2279-47.016-11.749-51.008-13.016l-1.1273-0.35779 0.30985 16.43c0.41122 21.806 1.4719 38.829 3.3603 53.93 1.0489 8.3881 2.7746 19.172 3.2777 20.483 0.20934 0.54552 1.0031-0.23842 2.7272-2.6934 7.8935-11.24 19.139-23.044 26.548-27.868 2.7539-1.7927 7.6078-4.0478 11.412-5.3018 0.84789-0.2795 1.2288-0.1727-8.5-2.383-11.663-2.6497-13-3.3497-13-6.8043 0-1.8324 2.3399-4.1833 4.1634-4.183 1.4024 2.7e-4 27.278 3.7636 32.837 4.7756 4.4837 0.81641 16.493 3.8511 29.607 7.4814 8.0413 2.226 17.528 4.2519 24.643 5.2624 12.064 1.7134 39.413 8.2976 53.75 12.94 16.398 5.31 24.084 7.2972 52.5 13.575 15.262 3.3718 26.91 6.6356 29.322 8.2163 0.64795 0.42455 1.6843 1.5196 2.3031 2.4335 4.0421 5.9702 11.783 15.605 14.922 18.574 2.2104 2.0902 6.9429 5.5655 11.706 8.5968 4.3978 2.7985 11.371 7.5916 15.496 10.651 12.659 9.3901 30.315 20.767 31.514 20.307 0.30477-0.11687 3.4116-2.0347 6.9042-4.2616zm-66.224-48.802c-0.71828-0.39037-1.5935-1.404-1.945-2.2525-0.7853-1.8959-0.47163-2.6758 2.9911-7.4366 3.6939-5.0786 4.5882-7.3996 4.5649-11.848-0.0214-4.0939-0.408-5.8867-2.6338-12.213-1.5926-4.5267-3.3826-11.919-4.6514-19.208-0.69673-4.0026-0.69789-4.5773-0.0109-5.625 0.49945-0.76228 1.2496-1.1669 2.1634-1.1669 1.8767 0 6.5542 2.4423 7.6954 4.018 0.50504 0.69741 1.6686 4.2974 2.5856 8 0.91703 3.7026 2.3684 8.9186 3.2252 11.591 2.0213 6.3045 2.7572 11.191 2.4241 16.097-0.22442 3.3042-0.60284 4.6301-2.2976 8.0503-2.9304 5.9137-9.5136 12.805-12.155 12.724-0.35741-0.0109-1.2375-0.33942-1.9558-0.72981zm-28.944-25.101c-0.4125-0.14953-3.9657-2.1844-7.896-4.5222-8.3139-4.945-10.803-5.9721-26.604-10.978-12.992-4.1155-26.57-7.4986-42.75-10.651-4.5512-0.88675-25.53-5.3429-29.5-6.2662-1.925-0.44767-6.6378-1.3648-10.473-2.0379-9.8263-1.7248-26.686-6.0812-28.11-7.2636-1.0846-0.90017-0.81513-3.3105 0.46384-4.1485 1.3697-0.89748 3.6726-0.622 16.119 1.9283 4.7187 0.96685 13.939 2.3231 20.726 3.0487 6.7246 0.71889 12.356 1.387 12.514 1.4846 0.15803 0.0977 5.3436 0.87868 11.524 1.7356 22.068 3.06 35.584 6.0034 53.841 11.725 13.756 4.3114 15.856 5.0853 21.312 7.8566l3.9176 1.9896-0.33026-3.1506c-1.2786-12.198-1.0662-15.164 1.1716-16.361 2.9224-1.564 5.7213 0.26003 6.8446 4.4606 1.0962 4.0991 4.2292 22.44 4.2271 24.746-3e-3 2.6032-1.5664 5.1245-3.743 6.0339-1.834 0.7663-2.0817 0.79439-3.2551 0.36919zm-229.64 53.726c-1.117-2.8188-2.977-7.818-4.1333-11.109l-2.1024-5.9845-2.0019 6.2345c-1.101 3.429-2.1289 6.797-2.2842 7.4845-0.26162 1.1582 0.18386 1.5153 6.0648 4.8621 3.491 1.9867 6.3788 3.6179 6.4176 3.625 0.0387 8e-3 -0.84353-2.2934-1.9605-5.1121zm397.74-4.3524 9.8501-4.5987 6.4302 1.038c3.5366 0.57092 6.5784 1.038 6.7595 1.038s-0.57111-1.204-1.6716-2.6755c-1.9736-2.6391-2.0711-2.6956-7.1659-4.1489l-5.165-1.4734-5.1937 2.64c-2.8565 1.452-7.7249 3.8683-10.819 5.3695-3.2897 1.5963-5.625 3.0277-5.625 3.4478 0 1.3939 1.5543 4.4265 2.15 4.1949 0.32997-0.12829 5.0325-2.3027 10.45-4.8319zm-410.05-16.904 3.0249-7.6311-1.2779-5.6189c-3.5158-15.459-5.3422-32.189-6.3448-58.119-0.62195-16.086-0.29314-40.676 0.56536-42.281 0.28188-0.52672 1.0123-1.081 1.6231-1.2317 0.61155-0.15094 10.659 2.0782 22.361 4.9609 29.879 7.3606 42.155 10.068 61.25 13.507 20.507 3.6939 57.183 8.5878 82.75 11.042 1.5125 0.14515 11.3 1.1574 21.75 2.2494 34.779 3.6342 48.408 4.7718 75.25 6.2815 18.251 1.0265 53.072 0.77102 65.75-0.48235 8.2051-0.81118 15.25-1.7901 15.25-2.1191 0-0.36723-7.4645-12.064-11.636-18.234-13.912-20.575-29.118-38.164-46.872-54.217-9.7415-8.8079-24.282-20.232-33.851-26.597l-4.6099-3.066-5.8901 0.45613c-10.046 0.77795-11.996 0.66928-13.413-0.74747-1.538-1.538-1.5695-3.476-0.0808-4.9647 1.0514-1.0514 1.7467-1.1749 8.3759-1.4881 16.535-0.7813 26.199-2.2367 43.445-6.5432 7.0302-1.7555 16.72-4.1424 21.532-5.3044 4.8125-1.1619 10.438-2.7619 12.5-3.5554 11.036-4.2462 13.634-5.3964 17.75-7.8578 4.7474-2.8389 8.4381-5.6406 16.299-12.373 5.5101-4.7191 8.1711-7.5969 11.268-12.186l2.1932-3.25-7.3802-0.59592c-12.549-1.0133-22.441-2.1807-33.63-3.969-36.445-5.8247-65.498-6.5629-94.75-2.4074-10.976 1.5592-32.528 5.9471-50.132 10.206-1.1727 0.28375-2.5227 0.51558-3 0.51518-0.4773-3.9e-4 -2.8928-1.6956-5.3678-3.7672-8.4021-7.0326-18.559-10.557-33.753-11.714-4.9681-0.37807-7.1629-0.76423-8.5994-1.513-1.0608-0.55293-2.4916-1.0054-3.1795-1.0054-1.8382 0-4.5789-1.2744-7.5263-3.4997-2.0395-1.5399-4.5777-4.8091-11.729-15.108-5.0195-7.2284-12.42-17.643-16.446-23.143s-10.33-14.162-14.01-19.25c-36.841-50.93-52.962-69.315-94.757-108.06-26.848-24.89-40.721-36.74-58.498-49.966-12.746-9.4831-74.221-49.798-99.502-65.253-29.931-18.298-49.785-28.318-94.25-47.568-18.759-8.1214-43.133-17.763-47.625-18.84-1.9369-0.46423-1.8369 0.12416 1.4208 8.3662 1.5377 3.8903 4.1073 10.713 5.7102 15.162 1.6029 4.4485 3.9717 10.524 5.2641 13.5 2.8005 6.4499 14.046 28.885 19.754 39.412 2.237 4.125 5.8521 11.052 8.0336 15.393 7.3445 14.617 15.133 28.413 27.439 48.607 4.0221 6.6 8.6318 14.25 10.244 17s6.5766 10.738 11.032 17.75c4.4558 7.0125 11.762 18.824 16.235 26.248 4.4736 7.4238 14.105 22.611 21.403 33.75 7.2981 11.139 16.123 24.669 19.611 30.068 6.8766 10.645 11.01 16.394 18.467 25.684 2.6487 3.3 8.2736 10.612 12.5 16.25 8.712 11.621 11.16 14.706 20.035 25.25 6.3366 7.5282 10.136 12.307 27.403 34.465 19.143 24.566 33.259 41.927 38.799 47.72 1.9384 2.0267 7.2368 6.7331 11.774 10.459 10.42 8.5552 12.356 10.406 13.032 12.454 1.1436 3.4651-1.5906 7.1459-5.3116 7.1505-0.84111 1e-3 -3.4286-0.694-5.75-1.5445-5.9077-2.1644-16.67-4.8098-23.202-5.7032-8.021-1.097-37.056-3.2495-43.768-3.2448-13.258 9e-3 -35.485 2.0643-51.5 4.7615-11.558 1.9464-29.291 5.6063-35.028 7.2291-16.605 4.6971-33.567 13.688-53.732 28.479-3.5804 2.6263-6.6179 4.9315-6.75 5.1227-0.34189 0.49461 7.6843 5.9989 14.217 9.7497 3.0487 1.7505 9.9306 5.3439 15.293 7.9853 5.3625 2.6414 15.488 7.6513 22.5 11.133 7.0125 3.4818 16.125 7.8721 20.25 9.7561 14.443 6.5967 44.573 21.658 52.5 26.243 4.4 2.5451 15.538 8.9065 24.75 14.136 9.2125 5.2298 20.238 11.587 24.5 14.126 4.2625 2.5396 9.775 5.6998 12.25 7.0227 5.0788 2.7147 33.589 18.722 55.75 31.3l14.75 8.3723 1.1369-3.8363c0.6253-2.11 2.4981-7.2704 4.1618-11.467zm460.74 13.081c0.65255-4.3516-0.11531-20.561-1.2649-26.699-4.2127-22.495-13.292-46.513-24.857-65.759-8.3725-13.932-17.544-24.66-33.66-39.368-10.727-9.7909-12.738-11.434-12.344-10.09 0.66325 2.2653 1.353 5.2867 2.3156 10.143 1.1588 5.8463 0.91245 10.338-0.9226 16.823l-0.99026 3.5 3.0604 5.241c3.4866 5.9709 8.5408 15.999 14.328 28.43 2.1886 4.7007 5.5423 11.423 7.4527 14.938 5.8796 10.818 11.99 23.301 18.147 37.068 7.5933 16.98 8.2556 18.066 12.702 20.821 3.5049 2.172 13.868 7.0433 15.344 7.2125 0.18941 0.0217 0.49961-0.99578 0.68936-2.2611zm-61.245-5.4686c2.485-1.2481 6.6083-3.0258 9.1629-3.9505 2.5545-0.92472 5.5845-2.1608 6.7332-2.7468 2.0081-1.0245 2.2371-1.0374 5.9478-0.33681 2.1226 0.40078 3.9405 0.64739 4.0399 0.548 0.65228-0.65227-12.479-28.235-23.801-49.995-2.1463-4.125-4.665-9.1875-5.5972-11.25-3.515-7.7774-10.447-21.876-12.345-25.106l-1.9714-3.3563-3.7291 3.0548c-4.5448 3.7231-8.4891 5.6661-17.684 8.7112-3.8747 1.2832-7.0994 2.3755-7.1659 2.4274-0.0666 0.0519 1.5302 3.1149 3.5484 6.8067 7.2954 13.346 12.033 22.448 18.328 35.212 5.9991 12.164 17.011 36.169 18.522 40.375 0.37041 1.0312 0.85777 1.875 1.083 1.875s2.4428-1.0211 4.9278-2.2692zm-485.22-3.6058c-0.16939-1.5812-0.34088-6.25-0.38108-10.375-0.10703-10.979-0.10172-10.956-2.9165-12.688l-2.3693-1.4578-4.9521 2.9809c-5.8159 3.5008-12.989 7.0292-18.085 8.8954l-3.6331 1.3306 4.1331 1.6874c3.3558 1.37 12.066 5.3566 25.633 11.733 2.6892 1.2638 2.9126 1.0808 2.5712-2.1061zm-34.821-17.463c4.7083-1.7428 15.732-7.1972 19.933-9.8631l2.1834-1.3853-2.6834-1.6128c-1.4759-0.88702-8.1959-4.7289-14.933-8.5375-6.7375-3.8086-14.69-8.3687-17.673-10.134l-5.4231-3.2089-3.9915 2.413c-6.1382 3.7107-12.157 8.3988-17.787 13.855-2.8188 2.7314-5.125 5.1048-5.125 5.2741 0 0.16928 4.5562 1.9576 10.125 3.9741 5.5688 2.0165 14.175 5.4245 19.125 7.5733 6.1386 2.6648 9.3974 3.828 10.25 3.6586 0.6875-0.13656 3.3875-1.0396 6-2.0066zm478.25-70.284c3.3-1.0981 7.4072-2.6312 9.1271-3.4069 2.9929-1.3499 10.623-7.0699 10.623-7.9638 0-0.53451-3.5703-6.3204-10.495-17.007-2.94-4.5375-7.8871-12.188-10.994-17-14.471-22.419-24.963-34.727-38.262-44.884-3.3-2.5205-9.4875-7.5139-13.75-11.096-4.2625-3.5824-7.975-6.5122-8.25-6.5105-0.72736 5e-3 -11.656 2.6308-21.75 5.2271-4.8125 1.2378-11.169 2.6223-14.125 3.0767-2.9562 0.45437-5.375 1.0199-5.375 1.2568 0 0.23684 0.23084 0.43063 0.51298 0.43063s3.0384 1.8316 6.125 4.0703c29.993 21.753 50.557 42.024 69.93 68.93 4.7504 6.5976 13.085 19.111 15.9 23.871 2.4828 4.199 1.4735 4.1047 10.782 1.0073zm-16.589-99.718c3.2509-2.033 10.226-6.1928 15.5-9.244 15.745-9.109 23.381-14.453 32.783-22.944 10.426-9.4162 26.598-27.889 36.096-41.231 6.7416-9.4703 29.398-44.599 37.563-58.24 15.015-25.088 17.085-28.884 22.763-41.75 5.6622-12.831 13.841-34.377 14.882-39.202l0.36707-1.7022-3.1817 0.33888c-1.7499 0.18639-8.8067 0.907-15.682 1.6014-40.226 4.0628-78.26 12.395-145.75 31.928-7.2875 2.1092-18.088 5.1623-24 6.7846-13.367 3.6676-43.34 13.482-55 18.01-29.002 11.261-32.952 12.953-49.122 21.042-10.853 5.4289-14.254 7.391-24.628 14.208-4.5485 2.9889-11.127 6.8963-12.917 7.6717-0.22909 0.0994-0.0347-0.55803 0.43216-1.4607 0.80857-1.5636 2.2488-5.196 6.0347-15.22 2.8766-7.6164 5.6153-17.884 8.0575-30.207l2.337-11.793 0.1905-12.625c0.10485-6.9438 0.0425-12.625-0.13828-12.625-0.18081 0-1.2666 0.76132-2.4129 1.6918-3.0963 2.5135-14.41 9.8293-19.834 12.825-12.806 7.0734-26.134 11.914-44.559 16.185-19.314 4.4764-30.514 8.552-37.691 13.716-4.02 2.892-9.25 7.1649-9.25 7.5571 0 0.19894 4.0889 5.9673 9.0864 12.819 12.376 16.967 20.89 28.845 25.664 35.802 3.2998 4.8098 4.2626 5.8799 5.5 6.1132 0.825 0.15547 6.45 1.0622 12.5 2.0147 14.073 2.2158 20.014 3.5742 33.228 7.5985 12.52 3.8126 20.067 6.7378 29.807 11.553l7.0355 3.478 9.2145-1.9238c19.653-4.1032 33.771-5.5696 53.964-5.6049 18.916-0.033 35.374 1.3592 58.25 4.9277 16.502 2.5742 24.533 3.4348 39.669 4.2512 8.0932 0.43651 8.9042 0.56535 9.7061 1.5419 1.4419 1.7559 1.0604 3.8703-1.5323 8.4923-4.6308 8.2557-8.7563 12.991-18.093 20.769-13.46 11.213-21.546 15.701-36 19.984-3.4375 1.0185-6.4279 2.0089-6.6453 2.2008-0.3843 0.33934 4.3489 4.6599 16.014 14.618l5.6924 4.8594 4.0946-2.5563c2.252-1.406 6.7544-4.2197 10.005-6.2527zm-406.05 0.96529c-6.709-6.6338-18.443-20.831-38.121-46.125-17.814-22.897-24.976-31.882-32.697-41.018-4.0568-4.8005-11.681-14.467-16.943-21.48-5.2616-7.0136-12.3-16.186-15.641-20.383-6.9474-8.7287-11.316-14.913-18.805-26.619-2.9027-4.5375-10.963-16.912-17.912-27.5s-16.844-26.225-21.989-34.75c-5.1452-8.525-12.386-20.225-16.09-26s-9.2873-14.775-12.407-20c-3.1195-5.225-7.7742-12.927-10.344-17.116-7.7557-12.642-17.934-30.697-24.317-43.134-3.3166-6.4625-7.9197-15.238-10.229-19.5-4.4611-8.2336-15.662-30.731-17.799-35.75-0.70256-1.65-1.2852-2.775-1.2948-2.5-0.05888 1.6919 4.5671 27.802 7.7019 43.472 7.5242 37.61 12.6 59.765 17.533 76.528 2.0153 6.848 12.516 38.532 18.642 56.25 1.3787 3.9875 3.8724 11.244 5.5414 16.125 4.3344 12.677 7.4404 20.167 13.322 32.125 8.8105 17.913 25.556 44.324 37.299 58.827 12.663 15.64 16.653 20.702 22.005 27.923 7.0083 9.4556 11.24 14.578 21.684 26.25 4.4293 4.95 10.289 11.7 13.022 15 5.1051 6.1647 8.0346 9.3876 18.457 20.305 3.3105 3.4678 6.9729 7.3576 8.1388 8.644l2.1197 2.3389 12.38-0.32914c10.15-0.26982 15.038-0.13656 27.13 0.74011 16.685 1.2095 27.35 2.3132 31.75 3.2855 1.65 0.36464 3.2942 0.68605 3.6538 0.71422 0.35958 0.0281-2.2475-2.8175-5.7934-6.3238zm-38.36-18.458c-10.473-7.8966-32.17-24.944-44.625-35.062l-2.125-1.7262 2.6938 7.6852c4.1036 11.708 10.279 28.351 11.663 31.433 1.387 3.0883 1.5614 4.6456 0.64411 5.751-0.65045 0.78375-2.8872 1.0037-3.7513 0.36888-0.80465-0.59116-6.2142-7.3788-11.15-13.991-5.7595-7.7149-17.252-22.469-23.855-30.627-6.05-7.4737-9.3637-11.858-16.25-21.5-2.8477-3.9875-8.654-11.942-12.903-17.677-9.8225-13.258-17.75-25.73-28.968-45.573-1.3992-2.475-4.8376-8.55-7.641-13.5-7.0211-12.397-11.145-20.996-16.665-34.75-5.5988-13.95-10.95-30.525-13.831-42.837-3.0048-12.844-2.9148-13.724 1.5049-14.717 2.7608-0.62031 3.7159-1e-3 6.8182 4.4196 6.0971 8.6885 18.529 25.454 29.205 39.384 9.3028 12.139 26.753 35.655 31.723 42.75 11.121 15.877 23.945 33.267 35.949 48.75 10.288 13.27 36.176 45.305 44.042 54.5 3.7641 4.4 10.484 12.583 14.932 18.184 4.4488 5.6014 10.732 13.443 13.964 17.425 5.9279 7.3057 6.7892 9.0267 5.275 10.541-1.7044 1.7044-3.3676 0.78214-16.65-9.2327zm-8.2465-15.792c-1.9462-2.4543-4.3206-5.2389-18.183-21.325-7.8322-9.0882-32.836-39.73-41.249-50.55-11.02-14.173-23.513-30.974-33.089-44.5-8.7572-12.37-20.866-28.669-36.959-49.75-4.8284-6.325-11.344-14.988-14.48-19.25-3.1358-4.2625-5.873-7.946-6.0828-8.1854-1.5552-1.7756 6.591 23.561 11.608 36.104 7.4323 18.581 8.5371 20.817 22.356 45.248 13.258 23.438 20.837 35.54 29.33 46.833 2.7921 3.7125 7.958 10.8 11.48 15.75 9.3691 13.169 12.271 17.062 19.765 26.517 3.7128 4.6843 8.876 11.371 11.474 14.86 2.5979 3.4886 4.7999 6.2664 4.8933 6.173 0.0934-0.0934-0.31023-1.3804-0.89701-2.8599-3.1612-7.9707-8.4698-23.343-8.4698-24.526 0-3.0154 2.3364-5.3503 4.6265-4.6235 1.1985 0.38038 16.804 12.883 41.568 33.304 2.2305 1.8392 4.1308 3.358 4.2229 3.375 0.0922 0.017-0.76918-1.1503-1.914-2.5941zm291.87-27.659c3.6422-1.0812 6.6234-2.0872 6.625-2.2357 5e-3 -0.36911-7.7702-3.6316-13.727-5.7604-6.0666-2.1683-23.895-7.3076-30.271-8.7261-4.8233-1.0731-23.576-4.0842-23.833-3.8269-0.0773 0.0773 1.1473 1.4068 2.7214 2.9543l2.8619 2.8138 8.25 0.80702c9.8089 0.9595 8.9965 0.79565 17.645 3.5589 9.5772 3.0599 12.949 4.8507 19.166 10.178 1.6163 1.385 3.1637 2.4473 3.4387 2.3606 0.275-0.0867 3.48-1.0423 7.1221-2.1235zm12.128-75.639c1.5125-0.79283 5.7602-3.1728 9.4394-5.2888 14.315-8.2329 29.059-15.057 47.311-21.895 0.825-0.30912 2.4-1.0578 3.5-1.6636 1.1-0.60589 3.7369-1.7205 5.8597-2.477 3.5143-1.2524 3.813-1.4628 3.3375-2.3512-0.74949-1.4004-2.5165-7.4404-6.2064-21.215-6.9976-26.122-12.794-39.329-27.952-63.687-2.1391-3.4375-5.9292-9.85-8.4223-14.25-10.823-19.101-26.343-44.994-27.573-46-1.0533-0.86207-5.5451-7.7935-12.869-19.859-7.2813-11.995-9.6946-15.732-15.431-23.891-1.8366-2.6125-4.0869-6.1-5.0006-7.75-2.1612-3.9028-6.2351-9.6058-13.975-19.564-13.552-17.435-18.959-23.057-50.607-52.622-24.568-22.95-30.686-27.976-48.504-39.843-5.9636-3.9717-10.97-7.2213-11.125-7.2213-0.47951 0-0.30126 32.76 0.22716 41.75 0.2748 4.675 1.1668 16.15 1.9823 25.5 0.81545 9.35 1.7261 20.262 2.0236 24.25 3.9144 52.462 13.948 138.77 24.261 208.7 1.7804 12.072 3.684 24.089 4.2303 26.705 0.54625 2.6159 0.99431 5.2266 0.99567 5.8015 1e-3 0.57494 0.53561 1.7116 1.1872 2.526l1.1847 1.4807 2.9378-2.8012c10.563-10.072 19.68-14.256 44.546-20.444 20.589-5.1237 30.975-8.8344 42.891-15.323 7.5382-4.105 18.828-11.604 23.807-15.814 2.0937-1.7701 4.2985-3.3744 4.8995-3.5652 1.4159-0.44939 3.1096 0.66566 4.5492 2.995 1.0636 1.7209 1.1311 2.4539 1.3737 14.901 0.16683 8.5612 0.0541 14.592-0.32589 17.43-1.2106 9.0422-6.0506 31.943-7.797 36.893-1.0034 2.8441-1.0034 2.8442 0.86878 1.341 0.89375-0.71764 2.8625-1.9535 4.375-2.7463z" stroke-width="1.5625"/></svg>
